<?xml version="1.0" standalone="no"?>
<!DOCTYPE svg PUBLIC "-//W3C//DTD SVG 1.1//EN" "http://www.w3.org/Graphics/SVG/1.1/DTD/svg11.dtd" >
<svg xmlns="http://www.w3.org/2000/svg" xmlns:xlink="http://www.w3.org/1999/xlink" version="1.1">
<metadata></metadata>
<defs>
<font id="optimanormal" horiz-adv-x="1138" >
<font-face units-per-em="2048" ascent="1638" descent="-410" />
<missing-glyph horiz-adv-x="569" />
<glyph horiz-adv-x="0" />
<glyph unicode="&#xd;" horiz-adv-x="569" />
<glyph unicode=" "  horiz-adv-x="569" />
<glyph unicode="&#x09;" horiz-adv-x="569" />
<glyph unicode="&#xa0;" horiz-adv-x="569" />
<glyph unicode="!" horiz-adv-x="681" d="M217 100q0 49 37 86t88 37q47 0 84 -36.5t37 -86.5q0 -49 -35 -86t-86 -37t-88 35t-37 88zM242 1276q0 68 14 98q23 51 84 51q59 0 82 -49q16 -35 16 -100q-2 -41 -2 -55l-74 -867h-40l-78 867q-2 35 -2 55z" />
<glyph unicode="&#x22;" horiz-adv-x="681" d="M102 879q0 23 2 36v347q0 92 12.5 127.5t57.5 35.5q43 0 55.5 -35.5t12.5 -127.5v-347q2 -12 2 -36q0 -41 -16.5 -63.5t-53.5 -22.5q-72 0 -72 86zM436 879q0 23 2 36v347q0 92 12.5 127.5t57.5 35.5q43 0 55 -35.5t12 -127.5v-347q2 -12 3 -36q0 -41 -16.5 -63.5 t-53.5 -22.5q-72 0 -72 86z" />
<glyph unicode="#" d="M68 442v115h237l43 272h-225v115h242l63 416h119l-64 -416h273l61 416h119l-62 -416h199v-115h-215l-41 -272h205v-115h-223l-64 -442h-119l64 442h-274l-68 -442h-119l68 442h-219zM424 557h274l41 272h-272z" />
<glyph unicode="$" d="M154 84q12 43 24 90t12 86h23q68 -102 129 -145q80 -55 195 -56v574q-156 57 -222 108q-127 98 -127 258q0 162 101 261q92 90 248 114v158l41 -6l40 6v-152q102 0 178 -22.5t132 -71.5q-33 -72 -54 -162h-22q-39 82 -90 125q-62 49 -144 49v-514q240 -104 283 -147 q82 -84 82 -215q0 -176 -101.5 -290t-263.5 -142v-228l-40 7l-41 -7v215q-166 0 -245 27t-138 80zM348 1063q0 -84 45 -143q40 -52 144 -99v471q-84 -18 -136.5 -79.5t-52.5 -149.5zM618 72q92 23 148.5 94.5t56.5 177.5q0 127 -104 197q-72 41 -101 55v-524z" />
<glyph unicode="%" horiz-adv-x="1820" d="M92 1034q0 147 98.5 243.5t243.5 96.5q141 0 227.5 -94.5t86.5 -235.5q0 -139 -96.5 -243.5t-233.5 -104.5q-147 0 -236.5 95.5t-89.5 242.5zM240 1008q0 -104 34 -172q45 -88 142 -88q98 0 147 108q37 84 37 195q0 147 -49 215q-41 57 -119 57q-111 0 -158 -109 q-34 -79 -34 -206zM459 -68l762 1493q14 -4 45 -4q33 0 49 4l-762 -1493q-33 4 -49 5q-16 0 -45 -5zM1059 311q0 147 98 245.5t244 98.5q141 0 227 -95t86 -238q0 -94 -45 -174t-127 -130q-29 -16 -75 -28.5t-83 -12.5q-145 0 -235 94.5t-90 239.5zM1206 289q0 -104 35 -172 q45 -88 141 -88q100 0 150 108q35 78 35 195q0 113 -29 178q-41 94 -139 94q-111 0 -158 -108q-35 -80 -35 -207z" />
<glyph unicode="&#x26;" horiz-adv-x="1478" d="M147 313q0 137 107 254q88 96 252 178l12 7q-70 104 -92 149q-45 90 -45 170q0 137 87 220t228 83q119 0 195 -56t76 -159q0 -115 -90 -217q-59 -68 -189 -154q125 -160 252 -319l109 -123q57 82 125.5 197.5t117.5 206.5q12 -20 31.5 -42t46.5 -42q-139 -213 -276 -375 l256 -295q-53 4 -78 6t-47 2l-117 -6q-51 74 -61 88q-25 35 -68 84q-180 -199 -442 -199q-170 0 -280 93.5t-110 248.5zM313 360q0 -129 87 -214t214 -85q82 0 168 41t156 111q-82 100 -196.5 244.5t-188.5 244.5l-16 -10q-106 -68 -158 -135q-66 -86 -66 -197zM524 1126 q0 -53 27.5 -123t101.5 -172q96 70 146 134q63 84 63 182q0 74 -45 123t-119 49q-84 0 -129 -55.5t-45 -137.5z" />
<glyph unicode="'" horiz-adv-x="569" d="M213 879q0 23 2 36v347q0 92 12.5 127.5t57.5 35.5q43 0 55 -35.5t12 -127.5v-347q2 -12 2 -36q0 -41 -16 -63.5t-53 -22.5q-72 0 -72 86z" />
<glyph unicode="(" horiz-adv-x="569" d="M127 672q0 504 326 860l41 -39q-129 -178 -187 -403q-49 -195 -49 -449q0 -223 53 -430q25 -98 70 -188q31 -61 113 -191l-41 -41q-174 201 -250 405.5t-76 475.5z" />
<glyph unicode=")" horiz-adv-x="569" d="M76 -168q72 111 110 191q49 96 72 188q53 207 53 430q0 260 -47 446q-55 223 -188 406l41 39q160 -176 242.5 -396.5t82.5 -463.5q0 -274 -73.5 -475t-251.5 -406z" />
<glyph unicode="*" horiz-adv-x="909" d="M109 1174q41 47 59 104l258 -184l-29 315q16 -2 29.5 -2h30.5q39 0 57 4l-31 -321l256 190q25 -55 62 -104l-289 -132l287 -126q-16 -25 -28.5 -46.5t-29.5 -56.5l-260 182l35 -317q-25 2 -43 3t-31 1q-16 0 -45 -4l29 311l-250 -182l-47 80l-12 20l286 133z" />
<glyph unicode="+" horiz-adv-x="1241" d="M104 455v131h451v448h131v-448h451v-131h-451v-455h-131v455h-451z" />
<glyph unicode="," horiz-adv-x="569" d="M94 -330l144 455q18 55 28 74q27 43 66 43q33 0 58.5 -21.5t25.5 -54.5q0 -27 -15 -57q-4 -8 -30 -52l-242 -401z" />
<glyph unicode="-" horiz-adv-x="681" d="M84 389v127h512v-127h-512z" />
<glyph unicode="." horiz-adv-x="569" d="M162 100q0 49 37 86t88 37q47 0 84 -36.5t37 -86.5q0 -49 -35 -86t-86 -37t-88 35t-37 88z" />
<glyph unicode="/" horiz-adv-x="569" d="M-68 -209l584 1741q18 -4 53 -4q36 0 52 4l-584 -1741q-29 4 -47 4q-12 0 -58 -4z" />
<glyph unicode="0" d="M90 641q0 305 94 487q125 242 402 242q236 0 349.5 -171t113.5 -511q0 -330 -130.5 -520.5t-345.5 -190.5q-262 0 -380 191q-103 164 -103 473zM258 684q0 -264 43 -403q74 -240 277 -240q158 0 233 174q70 162 70 473q0 268 -70 432q-80 186 -229 187q-186 0 -260 -164 q-63 -141 -64 -459z" />
<glyph unicode="1" d="M193 1190q123 49 219 96q119 57 213 115l34 -10v-1397l-81 6l-82 -6v1237l-15 6l-227 -123q-20 49 -61 76z" />
<glyph unicode="2" d="M90 0v31l168 168l123 127q133 137 184 198q94 113 137 213q53 125 54 271q0 135 -54 209q-59 82 -186 81q-96 0 -163.5 -60t-86.5 -157l-14 -6l-72 101q123 195 355 194q186 0 292 -84q117 -92 117 -274q0 -119 -61 -234q-49 -90 -150 -196l-244 -260l-124 -132l-35 -38 l10 -23q70 0 225 8q350 18 404 19l-6 -78l6 -78h-879z" />
<glyph unicode="3" d="M123 43q10 27 16 65.5t8 59.5l13 8q55 -61 126.5 -98t149.5 -37q154 0 242 102.5t88 257.5q0 133 -74 205t-209 72q-16 0 -56 -4t-42 -4l6 43l-6 41l78 -4q121 0 186 92q59 82 60 207q0 115 -57.5 186.5t-159.5 71.5q-74 0 -138.5 -46.5t-93.5 -117.5l-10 -6l-51 110 q35 41 100 74q96 49 201 49q154 0 262 -67q127 -80 127 -226q0 -119 -73 -214t-204 -142q145 0 242.5 -84t97.5 -231q0 -197 -153 -316q-145 -113 -367 -113q-86 0 -160.5 15.5t-148.5 50.5z" />
<glyph unicode="4" d="M43 381v27q72 106 221 319q115 166 224.5 319.5t224.5 313.5l65 -6l64 6v-862l188 8q-2 -16 -3 -35.5t-1 -30.5v-32q4 -25 4 -35l-188 8v-387l-82 6l-82 -6v387h-635zM213 508l8 -10h461v657l-10 8q-117 -154 -289 -405q-86 -125 -170 -250z" />
<glyph unicode="5" d="M121 57l31 136l14 2q45 -74 125 -112t172 -38q143 0 227 115q78 106 78 264q0 150 -66 229q-74 90 -227 90q-70 0 -129 -24q-41 -16 -74 -43l-18 14v674l12 6h658l8 -16q-6 -29 -10 -56.5t-4 -56.5q0 -25 2 -37q-68 14 -135.5 23.5t-141.5 9.5h-303v-457q49 25 106.5 37 t112.5 12q170 0 284.5 -108.5t114.5 -280.5q0 -186 -135 -319q-145 -143 -374 -144q-125 0 -218 29q-57 18 -110 51z" />
<glyph unicode="6" d="M119 559q0 369 168 590t436 221h44t48 -6l23 -72q-43 14 -97 15q-223 0 -344 -240q-94 -188 -94 -436q117 182 332 182q188 0 291.5 -103.5t103.5 -277.5q0 -199 -124 -327t-322 -128q-242 0 -363 177q-102 150 -102 405zM303 375q0 -133 77 -233.5t206 -100.5t198 117 q63 104 64 260q0 145 -69.5 231t-186.5 86q-137 0 -213 -92t-76 -268z" />
<glyph unicode="7" d="M162 -6l2 22q125 207 252 414q102 168 248 414q137 231 208 364l-8 9q-119 0 -352 -16.5t-348 -16.5l6 94l-6 92h874l2 -59q-72 -117 -223 -379q-190 -330 -268 -469q-137 -248 -248 -469l-70 6z" />
<glyph unicode="8" d="M115 383q0 131 84 235.5t213 135.5v14q-98 25 -162 100.5t-64 178.5q0 152 123 241q111 82 269 82q92 0 150 -14.5t122 -61.5q113 -86 113 -227q0 -100 -66 -182t-164 -109v-14q127 -23 210 -114t83 -224q0 -203 -128 -325t-333 -122q-203 0 -321 99q-129 106 -129 307z M295 385q0 -147 65 -240q74 -104 218 -104q135 0 206 115q61 98 62 241q0 141 -62 228q-72 98 -209 98q-131 0 -205.5 -101.5t-74.5 -236.5zM356 1024q0 -47 18.5 -93t49.5 -81t67.5 -48.5t86.5 -13.5q53 0 97 25t75 70q18 25 30.5 66.5t12.5 111.5q0 104 -58 175t-160 71 q-51 0 -96 -25t-74.5 -68t-39 -85t-9.5 -105z" />
<glyph unicode="9" d="M92 934q0 201 126 318.5t333 117.5q227 0 344 -182q100 -156 100 -402q0 -350 -173 -579.5t-421 -229.5q-43 0 -95 7.5t-66 19.5q-6 50 -43 105l22 8q86 -76 199 -76q94 0 183 79t142 218q33 84 49.5 187.5t16.5 199.5q-49 -88 -138 -137t-192 -49q-168 0 -274 104 q-113 111 -113 291zM272 946q0 -135 58 -221q68 -100 198 -100q125 0 205 104q74 96 74 223q0 160 -67.5 257.5t-194.5 97.5q-137 0 -211 -117q-61 -98 -62 -244z" />
<glyph unicode=":" horiz-adv-x="569" d="M162 100q0 49 37 86t88 37q47 0 84 -36.5t37 -86.5q0 -49 -35 -86t-86 -37t-88 35t-37 88zM162 840q0 49 37 86t88 37q47 0 84 -37t37 -86t-35 -86t-86 -37t-88 35t-37 88z" />
<glyph unicode=";" horiz-adv-x="569" d="M94 -330l144 455q18 55 28 74q27 43 66 43q33 0 58.5 -21.5t25.5 -54.5q0 -27 -15 -57q-4 -8 -30 -52l-242 -401zM199 840q0 49 36.5 86t88.5 37q47 0 83.5 -37t36.5 -86t-34.5 -86t-85.5 -37t-88 35t-37 88z" />
<glyph unicode="&#x3c;" horiz-adv-x="1241" d="M100 465v110l1043 480v-127l-877 -408l877 -407v-127z" />
<glyph unicode="=" horiz-adv-x="1241" d="M104 256v131h1033v-131h-1033zM104 653v131h1033v-131h-1033z" />
<glyph unicode="&#x3e;" horiz-adv-x="1241" d="M98 -14v127l877 407l-877 408v127l1043 -480v-110z" />
<glyph unicode="?" horiz-adv-x="796" d="M160 1362q53 31 101 47t99 16q141 0 224.5 -71.5t83.5 -194.5q0 -88 -27.5 -146t-95.5 -134l-129 -142q-51 -59 -70 -86q-35 -55 -35 -106t32 -85t83 -34q29 0 59 12l13 -8l-25 -57q-14 -8 -55 -8q-98 0 -164 61q-72 68 -72 178q0 57 21.5 110.5t97.5 131.5l123 131 q51 53 76 92q35 55 35 113q0 78 -55.5 124t-135.5 46q-47 0 -95 -27t-77 -65zM252 100q0 49 37 86t88 37q47 0 84 -36.5t37 -86.5q0 -49 -35 -86t-86 -37t-88 35t-37 88z" />
<glyph unicode="@" horiz-adv-x="1638" d="M102 682q0 313 215 528t539 215q297 0 494 -178q186 -168 186 -403q0 -223 -156 -400q-143 -162 -297 -161q-86 0 -131 49q-37 41 -43 98q-59 -55 -82 -74q-82 -63 -174 -63q-111 0 -192 86q-43 45 -62.5 95t-19.5 116q0 168 135 313.5t307 145.5q72 0 120 -31t73 -84 l26 94h181l-148 -536q-10 -41 -10 -50q0 -29 14.5 -48t42.5 -19q100 0 195 117q113 139 112 348q0 162 -124 303q-160 180 -433 180q-283 0 -469 -176t-186 -451q0 -276 190.5 -450t477.5 -174q162 0 294 75.5t224 210.5h125q-94 -178 -271.5 -283.5t-382.5 -105.5 q-322 0 -546 201t-224 512zM561 528q0 -70 27.5 -111.5t97.5 -41.5q96 0 193 182q86 164 86 285q0 55 -23 86q-29 39 -86 39q-123 0 -215 -164q-80 -144 -80 -275z" />
<glyph unicode="A" horiz-adv-x="1366" d="M33 -6l639 1431h47l614 -1431l-106 6l-109 -6q-74 211 -125 340q-33 82 -90 213h-520q-119 -297 -133 -338q-31 -82 -70 -215l-76 6zM422 633h450l-227 524z" />
<glyph unicode="B" horiz-adv-x="1214" d="M184 0v1395h412q236 0 346.5 -63.5t110.5 -219.5q0 -137 -91.5 -232.5t-232.5 -129.5q141 0 246 -72q129 -88 129 -250q0 -219 -184 -346q-80 -55 -207 -72q-78 -10 -226 -10h-303zM365 76h204q152 0 248 88t96 229q0 170 -118 244q-102 63 -306 63h-124v-624zM365 780 h90q88 0 145 7.5t117 33.5q157 70 157 246q0 139 -88 195.5t-260 56.5h-161v-539z" />
<glyph unicode="C" horiz-adv-x="1366" d="M78 702q0 336 223 535q213 188 549 188q109 0 222.5 -24.5t217.5 -69.5q-12 -31 -24.5 -77t-18.5 -80l-14 -3q-23 29 -80 70q-150 106 -311 107q-270 0 -422 -195q-141 -180 -141 -459q0 -293 151.5 -469t396.5 -176q111 0 228 44t207 122l-11 -129q-90 -61 -208.5 -89 t-243.5 -28q-336 0 -528.5 199t-192.5 534z" />
<glyph unicode="D" horiz-adv-x="1593" d="M205 0v1395h465h139q193 0 293 -33q84 -27 160 -90q111 -90 165 -225.5t54 -286.5q0 -203 -72 -359q-63 -137 -186 -245q-88 -76 -220.5 -116t-398.5 -40h-399zM385 92q61 0 163.5 -3t104.5 -3q117 0 191 10t141 45q156 78 229 242q66 145 66 346q0 324 -144.5 458 t-492.5 134q-43 0 -145.5 -4t-112.5 -4v-1221z" />
<glyph unicode="E" horiz-adv-x="1024" d="M182 0v1395h727l-6 -62l6 -61q-61 12 -100 17t-84 5l-205 4h-158v-514h318q39 0 103.5 5.5t78.5 5.5l-6 -54l6 -57q-37 0 -102.5 5t-79.5 5h-318v-598q66 0 214.5 4t156.5 4q57 0 84 3.5t105 15.5l-7 -62l7 -61h-740z" />
<glyph unicode="F" horiz-adv-x="1024" d="M182 -6v1401h727l-6 -62l6 -61q-61 12 -100 17t-84 5l-205 4h-158v-514h318q39 0 103.5 5.5t78.5 5.5l-6 -54l6 -57q-37 0 -102.5 5t-79.5 5h-318v-700l-90 6z" />
<glyph unicode="G" horiz-adv-x="1593" d="M131 694q0 348 227 545q217 186 572 186q201 0 358 -47q96 -29 164 -71q-8 -23 -21.5 -68t-25.5 -90h-23q-84 96 -205.5 147.5t-254.5 51.5q-268 0 -429 -169t-161 -474q0 -311 156.5 -484.5t455.5 -173.5q86 0 169 17.5t151 52.5v526l90 -6l90 6v-580q-272 -94 -557 -94 q-373 0 -572 207q-184 193 -184 518z" />
<glyph unicode="H" horiz-adv-x="1593" d="M184 -6v1401l90 -6l91 6v-588q102 0 256.5 -5t175.5 -5q98 0 159 2q246 8 271 8v588l90 -6l90 6v-1401l-90 6l-90 -6v704q-100 0 -162 2q-246 8 -268 9q-98 0 -252 -5.5t-180 -5.5v-704l-91 6z" />
<glyph unicode="I" horiz-adv-x="569" d="M195 -6v1401l90 -6l90 6v-1401l-90 6z" />
<glyph unicode="J" horiz-adv-x="569" d="M-29 -227q152 0 211 121q43 88 43 258v1243l90 -6l91 6v-1217q0 -201 -112 -331t-306 -130z" />
<glyph unicode="K" horiz-adv-x="1251" d="M186 -6v1401l90 -6l91 6v-633q2 -8 19 -4t33.5 17t67.5 63q18 18 39 36l504 521l82 -6l80 6l-465 -447l-174 -176q248 -283 498 -563l166 -205v-10l-113 6l-115 -6q-33 47 -68.5 95t-72.5 91l-447 522q-10 8 -26 11q-8 -2 -8 -4v-715l-91 6z" />
<glyph unicode="L" horiz-adv-x="1024" d="M182 0v1395l90 -6l90 6v-1299q66 0 214.5 4t156.5 4q49 0 121 9q49 8 74 10l-6 -62l6 -61h-746z" />
<glyph unicode="M" horiz-adv-x="1820" d="M90 -6q43 266 112.5 756.5t84.5 644.5h53q106 -209 174 -342q82 -158 195 -363q123 -223 211 -368q294 536 589 1073h43q43 -408 54 -500q33 -301 54 -468t58 -433l-96 6l-96 -6q-18 205 -33.5 391t-35 368.5t-36.5 297.5q-125 -225 -217 -394q-106 -197 -178 -340 q-78 -158 -141 -301h-23l-112 232q-74 154 -131.5 265.5t-141.5 270.5q-72 133 -141 267q-35 -293 -67.5 -592t-32.5 -465l-72 6z" />
<glyph unicode="N" horiz-adv-x="1593" d="M205 -6v1401h80l972 -1055h21v1055l57 -6l58 6v-1401h-62l-106 125l-885 979h-21v-1104l-57 6z" />
<glyph unicode="O" horiz-adv-x="1705" d="M86 694q0 330 219 535q210 196 536 196h3q319 0 532 -165q244 -190 244 -535q0 -340 -217 -548t-563 -208q-342 0 -548 198t-206 527zM287 670q0 -301 164 -473q154 -160 395 -160q289 0 448 250q125 195 125 422q0 139 -26.5 246.5t-102.5 203.5t-187.5 147.5 t-238.5 51.5q-268 0 -422.5 -187.5t-154.5 -500.5z" />
<glyph unicode="P" d="M162 -6v1401h366q299 0 414 -74t115 -262q0 -180 -111 -281q-102 -92 -328 -137q-27 -6 -71.5 -8t-50.5 -2q-47 0 -84 2t-70 4v-643l-90 6zM342 717q6 -2 55 -2q18 -2 39 -2h41h33q25 4 35 4q152 14 237.5 104t85.5 228q0 111 -53 178q-59 76 -133 83t-116 7h-66 q-45 0 -84 -1t-74 -1v-598z" />
<glyph unicode="Q" horiz-adv-x="1705" d="M86 696q0 317 218 523t540 206q336 0 549 -178q227 -190 227 -518q0 -289 -162 -479q-137 -162 -377 -244q229 -172 459 -346q-72 -33 -82 -37q-43 -23 -78 -47q-16 23 -178 166q-180 158 -284 233l-50 -6q-350 0 -561 187q-221 197 -221 540zM287 670q0 -313 170 -482 q151 -151 386 -151h3q217 0 360 135q113 106 170 287q43 133 43 250q0 141 -26.5 246.5t-102.5 202.5t-187.5 148.5t-238.5 51.5q-287 0 -440 -209q-137 -186 -137 -479z" />
<glyph unicode="R" horiz-adv-x="1251" d="M184 -6v1401h434q233 0 344 -77t111 -235q0 -166 -131 -270q-109 -86 -289 -119l422 -534l99 -115l38 -51l-118 6l-117 -6l-129 178l-242 313l-164 193h-77v-684l-91 6zM365 756q18 0 44.5 -1t59.5 -1q45 0 84 2t76 10q115 25 188.5 101.5t73.5 191.5q0 221 -225 258 q-43 6 -107 6q-33 0 -100 -2t-94 -2v-563z" />
<glyph unicode="S" horiz-adv-x="1024" d="M92 88q16 45 23.5 83t15.5 99h21q66 -106 135 -155q82 -57 196 -58q123 0 204 87t81 212q0 156 -166 242q-156 68 -309 137q-166 100 -166 297q0 188 135 295q125 98 320 98q82 0 159.5 -24.5t132.5 -73.5q-14 -33 -24 -61q-2 -6 -31 -107h-20q-33 86 -97.5 132 t-156.5 46q-109 0 -183.5 -66.5t-74.5 -172.5q0 -156 166 -242q156 -70 311 -137q168 -98 168 -283q0 -215 -148 -344q-139 -123 -358 -123q-84 0 -184.5 33t-149.5 86z" />
<glyph unicode="T" d="M41 1272l6 61l-6 62h1057l-6 -62l6 -61q-76 8 -191.5 16t-236.5 8v-1306l-90 6l-91 -6v1306q-160 0 -227 -4t-221 -20z" />
<glyph unicode="U" horiz-adv-x="1593" d="M193 575v820l90 -6l90 6v-785q0 -283 94 -407q104 -139 358 -140q231 0 342 158q100 143 101 410v764l57 -6l57 6v-815q0 -297 -160.5 -454t-437.5 -157q-287 0 -444 144q-86 78 -121 213q-26 98 -26 239v10z" />
<glyph unicode="V" horiz-adv-x="1366" d="M49 1395l98 -6l101 6l76 -199l137 -358l252 -621h18q41 82 60 123q35 70 55 125l215 555l123 342l14 33l76 -6l74 6q-37 -70 -166 -367q-141 -322 -254 -596q-137 -330 -172 -438l-41 6l-43 -6q-94 195 -244 536q-115 264 -226.5 525.5t-152.5 339.5z" />
<glyph unicode="W" horiz-adv-x="2048" d="M25 1395l96 -6l94 6q10 -31 31 -107q14 -55 30 -110l121 -416l172 -541h19q39 115 149 432q123 358 152 443q76 229 96 299l59 -6l58 6l389 -1174h18q41 104 82 234l240 772l49 168l72 -6l71 6q-57 -133 -102 -262l-391 -1139l-68 6l-67 -6l-371 1149h-16l-398 -1149 l-67 6l-70 -6l-82 270z" />
<glyph unicode="X" horiz-adv-x="1251" d="M74 -6l248 362l227 342l-236 387l-202 310l110 -6l111 6l104 -176l217 -373q172 274 344 549l76 -6l76 6l-35 -41l-313 -436l-101 -152l476 -772l-113 6l-113 -6q-164 322 -354 622q-190 -287 -371 -622l-75 6z" />
<glyph unicode="Y" horiz-adv-x="1251" d="M41 1395l115 -6l112 6q68 -133 202 -368.5t187 -317.5q33 39 119 188q61 106 160 289q55 104 113 209l79 -6l80 6q-76 -96 -145 -205l-225 -363q-41 -63 -64.5 -104t-50.5 -100v-629l-90 6l-90 -6v590z" />
<glyph unicode="Z" horiz-adv-x="1251" d="M35 0v45l596 832q98 141 147 210q68 96 144 216l-234 2q-117 0 -227 -9q-321 -24 -341 -24h-1l6 61l-6 62h1077v-39q-113 -147 -278 -373q-156 -211 -304 -426q-184 -268 -311 -463l311 -4q98 0 297 16.5t277 16.5l-6 -62l6 -61h-1153z" />
<glyph unicode="[" horiz-adv-x="681" d="M276 -238v1770h322v-59h-199v-1651h199v-60h-322z" />
<glyph unicode="\" horiz-adv-x="1024" d="M68 1532q16 -2 31.5 -3t31.5 -1h25q14 0 39 4l761 -1532q-23 2 -39 3t-26 1h-31q-20 -4 -31 -4z" />
<glyph unicode="]" horiz-adv-x="681" d="M84 -178h199v1651h-199v59h322v-1770h-322v60z" />
<glyph unicode="^" horiz-adv-x="1241" d="M104 563l449 832h135l447 -832h-144l-370 668l-373 -668h-144z" />
<glyph unicode="_" horiz-adv-x="1024" d="M0 -250h1024v-78h-1024v78z" />
<glyph unicode="`" horiz-adv-x="681" d="M41 1366q0 8 4 25q23 57 84 43q20 -8 27 -15q20 -14 42.5 -37.5t34.5 -35.5l259 -256h-72l-322 200q-20 16 -26 21q-18 12 -24.5 26.5t-6.5 28.5z" />
<glyph unicode="a" horiz-adv-x="1024" d="M94 227q0 156 117 224q72 41 262 71q133 23 168 41q49 27 49 96q0 115 -62.5 177.5t-176.5 62.5q-98 0 -172 -53q-57 -41 -72 -88h-23v114q80 55 161 84t169 29q332 0 332 -344v-475v-60q6 -43 55 -43q27 0 60 9v-45q-10 -4 -30 -11.5t-43.5 -11.5t-56.5 -4 q-59 0 -97 28.5t-46 96.5l-18 -19q-129 -129 -303 -129q-113 0 -193 70t-80 180zM262 256q0 -94 53.5 -143.5t147.5 -49.5q39 0 86 24t78 54q16 14 35.5 34t19.5 30v299l-72 -15q-178 -35 -225 -55q-123 -55 -123 -178z" />
<glyph unicode="b" d="M133 0v1532l82 -6l82 6v-758q70 102 149 154q90 57 205 57q203 0 316 -151q98 -133 98 -324q0 -217 -121 -369q-131 -164 -342 -164q-113 0 -194 52q-57 35 -97 94q-25 -18 -69 -60q-35 -33 -70 -63h-39zM293 418q0 -168 76.5 -271.5t210.5 -103.5q158 0 239 158 q66 125 66 301q0 178 -66 280q-76 117 -219 117q-162 0 -242 -149q-65 -121 -65 -326v-6z" />
<glyph unicode="c" horiz-adv-x="1024" d="M84 485q0 233 147.5 366.5t382.5 133.5q94 0 172 -19.5t152 -64.5l-47 -135h-17q-12 16 -26 35.5t-29 32.5q-35 39 -90 60t-113 21q-168 0 -264 -129q-88 -119 -88 -290q0 -197 103.5 -323t269.5 -126q84 0 154 37q53 29 129 96l12 -6l-10 -94q-139 -102 -314 -103 q-250 0 -391 146q-133 137 -133 362z" />
<glyph unicode="d" d="M192.5 837.5q120.5 147.5 319.5 147.5q102 0 184 -52t138 -147v746l81 -6l82 6v-1538l-82 6l-81 -6v196q-125 -213 -353 -213q-182 0 -291 121q-118 130 -118 371q0 221 120.5 368.5zM252 444q0 -156 59 -262q74 -131 221 -131q160 0 240 158q62 123 62 301 q0 154 -60 260q-74 131 -217 131q-176 0 -250 -149q-55 -111 -55 -308z" />
<glyph unicode="e" horiz-adv-x="1024" d="M70 481q0 223 118 359q127 145 351 145q182 0 292 -121q123 -133 123 -381l-415 6h-289q0 -184 84 -299q94 -127 270 -127q94 0 182 50q60 33 121 92l-2 -107q-80 -57 -168 -89t-184 -32q-217 0 -350 135.5t-133 368.5zM250 565h545q0 158 -52 246q-63 111 -204 111 q-137 0 -217 -113q-72 -101 -72 -244z" />
<glyph unicode="f" horiz-adv-x="569" d="M39 895q4 12 4 39q0 25 -4 39h141l4 16q37 289 156 430q94 115 235 115q27 0 41 -2q-6 -29 -8 -78t-2 -86l-10 -8l-41 20q-16 6 -42 8.5t-30 2.5q-92 0 -132 -57.5t-40 -157.5q0 -45 8.5 -98.5t20.5 -104.5h209q-4 -29 -4 -39q0 -14 4 -39h-205v-901l-82 6l-82 -6v901 h-141z" />
<glyph unicode="g" horiz-adv-x="1024" d="M74 -240q0 106 56 168t157 80v17q-74 12 -99.5 54t-25.5 111q0 66 41 111q33 37 100 66q-98 45 -145 110q-53 74 -54 182q0 156 95 238q102 88 319 88l285 -10q20 -2 35.5 -3t25.5 -1q20 0 46 3t40 5v-78l-225 19q68 -51 104.5 -119t36.5 -152q0 -158 -129 -241 q-117 -76 -307 -76q-18 2 -33 2q-47 0 -73 -17q-41 -25 -41 -84q0 -61 45 -79.5t151 -18.5h131q180 0 267.5 -68.5t87.5 -203.5q0 -180 -142.5 -292t-378.5 -112q-143 0 -247 70q-123 82 -123 231zM199 -231q0 -121 80.5 -184.5t214.5 -63.5q131 0 217 57q106 70 106 205 q0 113 -53 166q-62 61 -248 61q-317 0 -317 -241zM260 662q0 -117 57.5 -198t165.5 -81q106 0 170 82q57 74 58 186q0 131 -47 199q-55 80 -172 80q-106 0 -169 -74.5t-63 -193.5z" />
<glyph unicode="h" d="M158 -6v1538l82 -6l82 6v-746q53 94 138 146.5t191 52.5q174 0 252 -99.5t78 -299.5v-592l-82 6l-82 -6v545q0 178 -47 254q-53 86 -180 86q-268 0 -268 -328v-557l-82 6z" />
<glyph unicode="i" horiz-adv-x="569" d="M180 1323q0 43 31 73.5t74 30.5q41 0 72.5 -29.5t31.5 -74.5q0 -43 -30.5 -73.5t-73.5 -30.5t-74 30.5t-31 73.5zM203 -6v979l82 -6l82 6v-979l-82 6z" />
<glyph unicode="j" horiz-adv-x="569" d="M0 -475l18 -4q8 -2 23 -2q41 0 76 41q25 31 52.5 95t36.5 150.5t9 186.5v981l82 -6l82 6v-989q0 -147 -21 -234q-29 -121 -108 -199q-104 -92 -236 -92zM193 1323q0 43 30.5 73.5t73.5 30.5q41 0 72.5 -29.5t31.5 -74.5q0 -43 -30.5 -73.5t-73.5 -30.5t-73.5 30.5 t-30.5 73.5z" />
<glyph unicode="k" horiz-adv-x="1024" d="M162 -6v1538l82 -6l82 6v-918q-2 -29 -2 -41q0 -20 12 -26q6 -3 14 -3q21 0 53 23q33 23 111 101l127 129l160 176l82 -6l80 6v-15q-141 -119 -246 -210q-125 -109 -205 -185l481 -559v-10l-100 6l-102 -6q-53 70 -132 162q-59 70 -260 299q-29 33 -47 32q-26 0 -26 -70 v-5v-418l-82 6z" />
<glyph unicode="l" horiz-adv-x="569" d="M203 -6v1538l82 -6l82 6v-1538l-82 6z" />
<glyph unicode="m" horiz-adv-x="1705" d="M145 -6v979l82 -6l82 6v-176q51 90 126 139t177 49t185.5 -53t113.5 -150q121 203 322 203q180 0 258 -104q72 -94 72 -295v-592l-82 6l-82 -6v545q0 166 -37 237q-51 102 -191 103q-137 0 -194 -111q-41 -80 -41 -221v-553l-82 6l-82 -6v600q0 285 -217 285 q-143 0 -201 -88q-45 -70 -45 -201v-596l-82 6z" />
<glyph unicode="n" d="M158 -6v979l82 -6l82 6v-187q53 94 138 146.5t191 52.5q174 0 252 -96t78 -303v-592l-82 6l-82 -6v545q0 164 -41 241q-53 98 -186 99q-152 0 -215 -111q-53 -94 -53 -299v-475l-82 6z" />
<glyph unicode="o" d="M72 492q0 217 148.5 355t371.5 138q211 0 343 -136t132 -364q0 -209 -129 -352q-141 -156 -383 -156q-211 0 -347 141t-136 374zM252 461q0 -174 72 -287q84 -133 247 -133q162 0 248 166q68 129 68 289q0 168 -62 280q-79 146 -235 146q-180 0 -266 -148 q-72 -121 -72 -313z" />
<glyph unicode="p" d="M135 -530v1503l82 -6l82 6v-207q70 123 139 166q88 53 211 53q190 0 305 -141q106 -131 107 -328q0 -248 -122 -393.5t-321 -145.5q-109 0 -185.5 49.5t-129.5 147.5l-4 -704l-82 6zM299 457q0 -174 72 -279q80 -115 229 -115q143 0 217 134q63 117 64 311q0 176 -58 278 q-72 129 -225 129q-160 0 -238 -157q-61 -123 -61 -301z" />
<glyph unicode="q" d="M181.5 843.5q107.5 141.5 301.5 141.5q147 0 246 -84q70 -59 100 -139l5 211l81 -6l82 6v-1503l-82 6l-81 -6v700q-100 -193 -320 -193q-209 0 -330 152q-110 138 -110 350q0 223 107.5 364.5zM254 512q0 -188 57 -301q76 -147 248 -148q129 0 205 121q70 111 70 275 q0 190 -74 317q-80 139 -223 139q-150 0 -222 -116q-61 -102 -61 -287z" />
<glyph unicode="r" horiz-adv-x="681" d="M162 -6v979l82 -6l82 6v-205l10 25q55 88 115 135q72 57 143 57q41 0 63 -10l-28 -172q-10 2 -43 17.5t-54 15.5q-35 0 -71.5 -13.5t-59.5 -38.5q-47 -55 -61 -112.5t-14 -147.5v-530l-82 6z" />
<glyph unicode="s" horiz-adv-x="796" d="M86 43q12 37 24.5 75t18.5 75h16q39 -66 102.5 -109t133.5 -43q78 0 139.5 53t61.5 133q0 127 -242 197t-242 258q0 143 94.5 223t239.5 80q72 0 136.5 -17.5t95.5 -35.5q-31 -70 -50 -146h-18q-20 53 -69.5 94.5t-104.5 41.5q-80 0 -133 -45.5t-53 -124.5 q0 -123 241.5 -201t241.5 -250q0 -154 -121 -244q-106 -80 -256 -80q-63 0 -134 17.5t-122 48.5z" />
<glyph unicode="t" horiz-adv-x="569" d="M20 895q4 12 5 39q0 25 -5 39h127v203l164 63v-266h217q-4 -29 -4 -43t4 -35h-217v-514v-66q0 -125 21 -178q35 -88 131 -88q23 0 50.5 6t41.5 8v-49q-49 -18 -88 -27.5t-84 -9.5q-123 0 -176 66q-59 74 -60 256v596h-127z" />
<glyph unicode="u" d="M141 371v602l82 -6l82 6v-553q0 -172 56.5 -257t191.5 -85q141 0 205 110q47 82 47 220v565l82 -6l82 6v-979l-82 6l-82 -6v176q-100 -193 -326 -193q-172 0 -255 93.5t-83 300.5z" />
<glyph unicode="v" horiz-adv-x="1024" d="M41 973l92 -6l90 6q94 -311 305 -789q14 20 21 29q14 18 18 29l123 288l164 443l66 -6l65 6q-35 -72 -133 -291q-90 -201 -154 -352q-90 -215 -131 -336l-61 6l-64 -6q-66 176 -178 455q-125 309 -223 524z" />
<glyph unicode="w" horiz-adv-x="1593" d="M35 973l90 -6l90 6q63 -217 119 -383q66 -193 141 -377q63 135 149.5 365.5t137.5 394.5l53 -6l53 6q43 -168 117 -383t145 -379q82 195 168 410q106 266 134 352l65 -6l64 6q-25 -49 -106 -226.5t-157 -363.5q-102 -248 -149 -389l-55 6l-56 -6q-39 147 -113.5 366.5 t-138.5 376.5q-115 -225 -278 -743l-55 6l-56 -6q-186 569 -362 979z" />
<glyph unicode="x" horiz-adv-x="1024" d="M59 973l105 -6l104 6q43 -76 126 -195t138 -186l115 147l172 234l70 -6l72 6q-201 -215 -381 -441l383 -518v-20l-97 6l-96 -6q-45 76 -129 199q-90 133 -160 223q-68 -90 -143 -197q-102 -143 -152 -225l-61 6l-62 -6v20l369 463z" />
<glyph unicode="y" horiz-adv-x="1024" d="M53 973l99 -6l96 6q55 -170 132 -361.5t173 -398.5q66 133 158 365q76 188 149 395l68 -6l65 6q-96 -215 -233 -516q-127 -281 -221 -496q-125 -285 -207 -491l-70 6l-69 -6l274 532z" />
<glyph unicode="z" horiz-adv-x="1024" d="M45 0v18q84 102 227 291q63 84 235.5 316.5t190.5 257.5h-51q-92 0 -186 -6q-281 -18 -311 -19l6 51l-6 54h784v-19l-637 -862h57q104 0 211 6q317 18 355 18l-7 -53l7 -53h-875z" />
<glyph unicode="{" horiz-adv-x="681" d="M119 645q92 27 123.5 78t31.5 158v364q0 174 82 236q68 51 236 51q-96 -25 -133 -84t-37 -174v-363q0 -121 -29 -174q-35 -66 -137 -92q100 -27 137 -100q29 -60 29 -187v-340q0 -113 38 -174t132 -82q-182 0 -246 58q-72 63 -72 250v333q0 111 -26 158q-33 55 -129 84z " />
<glyph unicode="|" horiz-adv-x="681" d="M274 0v1532h132v-1532h-132z" />
<glyph unicode="}" horiz-adv-x="681" d="M90 -238q94 18 132 80.5t38 173.5v342q0 129 27 185q35 74 139 100q-100 27 -133 86t-33 182v363q0 113 -36 173t-134 85q168 0 236 -51q82 -61 82 -238v-364q0 -106 30.5 -157.5t124.5 -78.5q-98 -27 -126.5 -76t-28.5 -164v-333q0 -186 -72 -250q-63 -57 -246 -58z" />
<glyph unicode="~" horiz-adv-x="1241" d="M104 426q61 111 115 162q78 76 176 76q76 0 242 -73t213 -73q66 0 129 57q49 45 86 119l72 -82q-51 -96 -115 -151q-82 -72 -174 -72q-37 0 -100 21q-33 10 -177 69q-82 33 -86 35q-53 18 -92 18q-74 0 -131 -61q-31 -33 -86 -127z" />
<glyph horiz-adv-x="2048" />
<glyph horiz-adv-x="2048" />
<glyph horiz-adv-x="2048" />
<glyph horiz-adv-x="2048" />
<glyph horiz-adv-x="2048" />
<glyph d="M158 -6v979q10 -2 45 -4t37 -2h39q29 4 43 6v-713q133 143 290.5 338t286.5 375h82v-979l-82 6l-82 -6v713q-137 -154 -201 -230q-94 -111 -198.5 -243t-177.5 -240h-82z" />
<glyph horiz-adv-x="2048" />
<glyph horiz-adv-x="2048" />
<glyph unicode="&#xa1;" horiz-adv-x="2048" />
<glyph unicode="&#xa2;" horiz-adv-x="2048" />
<glyph unicode="&#xa3;" horiz-adv-x="2048" />
<glyph unicode="&#xa4;" d="M59 1135l91 90l110 -113q68 55 150 83t165 28q170 0 304 -109l108 109l88 -88l-108 -109q57 -68 84.5 -146.5t27.5 -164.5q0 -84 -27.5 -163t-88.5 -151l108 -110l-88 -88l-109 108q-63 -51 -140 -78.5t-161 -27.5q-178 0 -309 106l-108 -108l-90 86l110 110 q-115 145 -115 312q0 92 25 166.5t84 144.5zM186 711q0 -160 113 -270.5t274 -110.5q160 0 270.5 112.5t110.5 272.5q0 156 -111.5 269.5t-267.5 113.5q-162 0 -275.5 -112t-113.5 -275z" />
<glyph unicode="&#xa5;" d="M27 1405l106 -6l107 6q51 -115 182 -368t178 -328q43 53 186 333q104 205 179 363l73 -6l74 6l-135 -215l-180 -316h211v-100h-269q-25 -45 -48 -91t-29 -60v-74h346v-100h-346v-455l-84 6l-84 -6v455h-375v100h375v35l-111 190h-264v100h211z" />
<glyph unicode="&#xa6;" horiz-adv-x="681" d="M274 0v573h132v-573h-132zM274 958v574h132v-574h-132z" />
<glyph unicode="&#xa7;" horiz-adv-x="1024" d="M125 664q0 137 137 245q-55 98 -55 176q0 154 102.5 247t257.5 93q166 0 275 -114q-20 -25 -34.5 -52.5t-27.5 -66.5h-18q-29 74 -87.5 120t-123.5 46q-43 0 -84 -11.5t-75 -37t-56.5 -65.5t-22.5 -87q0 -72 39 -119t109 -77l256 -113q84 -39 132 -104.5t48 -155.5 q0 -72 -30.5 -136.5t-86.5 -125.5q78 -84 78 -164q0 -182 -123 -294t-307 -112q-76 0 -144.5 21.5t-144.5 62.5q14 53 19.5 89t5.5 85h18q51 -92 131 -138t179 -46q102 0 181 77t79 150q0 84 -54 136q-37 34 -131 75l-108 47q-168 72 -228 121q-106 88 -106 228zM217 731 q0 -57 36 -102t105 -86q41 -25 127 -62l152 -63l113 -62q27 41 42 76t15 72q0 63 -44 113.5t-126 87.5l-213 96q-35 14 -71 32.5t-58 45.5q-33 -29 -55.5 -69t-22.5 -79z" />
<glyph unicode="&#xa8;" horiz-adv-x="1024" d="M182 0v1395h727l-6 -62l6 -61q-61 12 -100 17t-84 5l-205 4h-158v-514h318q39 0 103.5 5.5t78.5 5.5l-6 -54l6 -57q-37 0 -102.5 5t-79.5 5h-318v-598q66 0 214.5 4t156.5 4q57 0 84 3.5t105 15.5l-7 -62l7 -61h-740zM276 1645q0 39 28 66.5t67 27.5t66.5 -28t27.5 -66 q0 -37 -28.5 -66t-65.5 -29t-66 29t-29 66zM678 1645q0 39 27.5 66.5t66.5 27.5q37 0 65.5 -29t28.5 -65q0 -37 -28.5 -66t-65.5 -29t-65.5 29t-28.5 66z" />
<glyph unicode="&#xa9;" horiz-adv-x="1536" d="M41 696q0 301 212 515t513 214t516 -213t215 -516t-214 -515t-517 -212q-299 0 -512 213t-213 514zM154 696q0 -254 181 -439t431 -185q254 0 436 184t182 440t-181 441.5t-437 185.5q-252 0 -432 -186.5t-180 -440.5zM340 700q0 188 129 296t330 108q137 0 262 -53 q-14 -35 -25 -95h-8q-18 29 -76 54q-74 33 -157 32q-143 0 -229.5 -98t-86.5 -248q0 -160 88 -252t219 -92q84 0 168 33q27 10 97 49l-13 -78q-53 -35 -122.5 -50t-145.5 -15q-201 0 -315.5 110.5t-114.5 298.5z" />
<glyph unicode="&#xaa;" horiz-adv-x="2048" />
<glyph unicode="&#xab;" horiz-adv-x="1024" d="M199 459l258 379q16 -20 32.5 -32.5t42.5 -21.5l-229 -323l219 -338q-49 -14 -78 -53zM492 459l258 379q16 -20 32.5 -32.5t42.5 -21.5l-229 -323l219 -338q-49 -14 -78 -53z" />
<glyph unicode="&#xac;" horiz-adv-x="1241" d="M104 653v131h1033v-553h-131v422h-902z" />
<glyph unicode="&#xad;" horiz-adv-x="2048" />
<glyph unicode="&#xae;" horiz-adv-x="1536" d="M39 698q0 303 214 515t517 212q299 0 512 -213t213 -514q0 -303 -211 -516t-514 -213q-301 0 -516 213t-215 516zM152 698q0 -254 182 -440t436 -186q252 0 432 184t180 442q0 256 -180 440.5t-432 184.5q-254 0 -436 -184.5t-182 -440.5zM500 307v783h258 q139 0 204.5 -43t65.5 -132q0 -92 -78 -149q-68 -49 -172 -68l252 -299l57 -63l23 -29l-70 6l-69 -6l-76 101l-145 174l-97 106h-47v-381l-53 6zM606 750h133q82 0 132.5 42t50.5 109q0 127 -138 127h-178v-278z" />
<glyph unicode="&#xaf;" horiz-adv-x="2048" />
<glyph unicode="&#xb0;" horiz-adv-x="819" d="M102 1063q0 127 90.5 217t217.5 90t217 -90t90 -217t-90 -217t-217 -90t-217.5 90t-90.5 217zM184 1063q0 -94 65.5 -159.5t160.5 -65.5q92 0 158.5 66.5t66.5 158.5t-66.5 158.5t-160.5 66.5q-92 0 -158 -65.5t-66 -159.5z" />
<glyph unicode="&#xb1;" horiz-adv-x="1241" d="M104 0v131h1033v-131h-1033zM104 578v131h451v325h131v-325h451v-131h-451v-332h-131v332h-451z" />
<glyph unicode="&#xb2;" horiz-adv-x="2048" />
<glyph unicode="&#xb3;" horiz-adv-x="2048" />
<glyph unicode="&#xb4;" horiz-adv-x="681" d="M193 1090l256 256l51 51q27 18 55 37q25 6 49.5 -6.5t31.5 -31t7 -36.5q0 -16 -8 -25q-6 -14 -24.5 -26.5t-26.5 -18.5l-322 -200h-69z" />
<glyph unicode="&#xb5;" d="M141 -530v1503l82 -6l82 6v-553q0 -172 56.5 -257t191.5 -85q141 0 205 110q47 83 47 220v565l82 -6l82 6v-979l-82 6l-82 -6v176q-100 -193 -326 -193q-100 0 -174 56v-563l-82 6z" />
<glyph unicode="&#xb6;" horiz-adv-x="1638" d="M238 1032q0 100 40.5 186.5t122.5 129.5q59 31 134 39t180 8h43h389v-1604l-64 6l-65 -6v1538h-180v-1538l-64 6l-65 -6v873l-74 -7q-184 0 -287 93q-111 98 -110 282zM514 956q0 -102 31 -161q41 -78 135 -78l29 2v610q-117 0 -160 -65q-35 -53 -35 -174v-134z" />
<glyph unicode="&#xb7;" horiz-adv-x="569" d="M162 471q0 49 37 86t88 37q47 0 84 -37t37 -86t-35 -86t-86 -37t-88 35t-37 88z" />
<glyph unicode="&#xb8;" horiz-adv-x="1024" d="M70 481q0 223 118 359q127 145 351 145q182 0 292 -121q123 -133 123 -381l-415 6h-289q0 -184 84 -299q94 -127 270 -127q94 0 182 50q60 33 121 92l-2 -107q-80 -57 -168 -89t-184 -32q-217 0 -350 135.5t-133 368.5zM217 1223q0 39 27.5 66.5t66.5 27.5t67 -27.5 t28 -66.5q0 -37 -29 -66t-66 -29t-65.5 29t-28.5 66zM250 565h545q0 158 -52 246q-63 111 -204 111q-137 0 -217 -113q-72 -101 -72 -244zM618 1223q0 39 28 66.5t67 27.5q37 0 65.5 -28.5t28.5 -65.5t-28.5 -66t-65.5 -29t-66 29t-29 66z" />
<glyph unicode="&#xb9;" horiz-adv-x="696" d="M25 1130q0 131 96 213t241 82q143 0 232 -90q41 -41 59.5 -95t18.5 -114q0 -88 -46 -161.5t-121 -108.5t-165 -35q-70 0 -137 27q-27 10 -47.5 22.5t-55.5 47.5q-45 45 -60 93.5t-15 118.5zM51 641v61h594v-61h-594zM141 1112q0 -104 47 -172q57 -82 162 -82 q104 0 160 100q45 80 45 175q0 98 -41 167q-52 89 -152 89q-117 0 -174 -91q-47 -74 -47 -186z" />
<glyph unicode="&#xba;" horiz-adv-x="2048" />
<glyph unicode="&#xbb;" horiz-adv-x="1024" d="M199 123l229 323l-219 338q49 15 78 54l245 -389l-258 -379q-16 20 -32.5 32.5t-42.5 20.5zM492 123l229 323l-219 338q49 15 78 54l245 -389l-258 -379q-16 20 -32.5 32.5t-42.5 20.5z" />
<glyph unicode="&#xbc;" horiz-adv-x="2048" />
<glyph unicode="&#xbd;" horiz-adv-x="2048" />
<glyph unicode="&#xbe;" horiz-adv-x="2048" />
<glyph unicode="&#xbf;" horiz-adv-x="2048" />
<glyph unicode="&#xc0;" horiz-adv-x="1327" d="M12 -6l639 1431h47l615 -1431l-107 6l-108 -6q-74 211 -125 340q-33 82 -90 213h-521q-119 -297 -133 -338q-31 -82 -69 -215l-76 6zM401 633h451l-227 524z" />
<glyph unicode="&#xc1;" horiz-adv-x="1214" d="M186 0v1395h830q-2 -6 -4 -23.5t-2 -38.5l6 -61q-61 12 -100 17t-85 5l-245 4h-219v-516h188q297 0 423 -83t126 -273q0 -188 -126 -306t-333 -118q-90 0 -205 -1t-254 -1zM367 84h204q152 0 247 95t95 237q0 111 -63 188q-70 86 -142.5 93.5t-114.5 7.5h-67 q-45 0 -84.5 -1.5t-74.5 -1.5v-618z" />
<glyph unicode="&#xc2;" horiz-adv-x="1214" d="M184 0v1395h412q236 0 346.5 -63.5t110.5 -219.5q0 -137 -91.5 -232.5t-232.5 -129.5q141 0 246 -72q129 -88 129 -250q0 -219 -184 -346q-80 -55 -207 -72q-78 -10 -226 -10h-303zM365 76h204q152 0 248 88t96 229q0 170 -118 244q-102 63 -306 63h-124v-624zM365 780 h90q88 0 145 7.5t117 33.5q158 70 157 248q0 137 -88 193.5t-260 56.5h-161v-539z" />
<glyph unicode="&#xc3;" horiz-adv-x="985" d="M184 -4v1399h727l-6 -62l6 -61q-61 12 -100 17t-84 5l-205 4h-157v-1302l-91 4z" />
<glyph unicode="&#xc4;" horiz-adv-x="1366" d="M-6 -86q4 18 5 56t1 46l-6 82h88q55 119 190 428q143 326 224 514q113 266 145 355h98q55 -137 113 -275q4 -10 235 -563q129 -307 195 -459h88l-6 -82q0 -25 1 -50t5 -52h-18q-39 59 -120 72.5t-290 13.5h-500q-186 0 -215 -2q-154 -10 -219 -84h-14zM213 98h877 l-433 1073h-8q-88 -195 -147 -331q-78 -180 -146 -353q-73 -190 -143 -389z" />
<glyph unicode="&#xc5;" horiz-adv-x="1024" d="M182 0v1395h727l-6 -62l6 -61q-61 12 -100 17t-84 5l-205 4h-158v-514h318q39 0 103.5 5.5t78.5 5.5l-6 -54l6 -57q-37 0 -102.5 5t-79.5 5h-318v-598q66 0 214.5 4t156.5 4q57 0 84 3.5t105 15.5l-7 -62l7 -61h-740z" />
<glyph unicode="&#xc6;" horiz-adv-x="1820" d="M37 4q59 78 121 156q156 201 256 327q164 207 231 285l-584 623l80 -6l82 6q68 -78 135 -154q180 -207 258 -293q145 -162 163 -176t30 -16t12 6v633l90 -6l90 6v-633q6 -2 15 -4q16 4 33.5 18.5t156.5 169.5q78 86 258 293q68 78 135 156l82 -6l80 6l-583 -623 q61 -72 229 -283q100 -127 256 -327q61 -80 123 -158v-10l-113 6l-114 -6q-47 70 -154 213q-121 162 -242 325q-63 84 -127 170q0 4 -16 9q-10 -2 -19 -2v-715l-94 6l-86 -6v715q-8 0 -16 2q-18 -2 -19 -9q-63 -84 -124 -167q-121 -164 -240 -328q-80 -106 -158 -213l-114 6 l-113 -6v10z" />
<glyph unicode="&#xc7;" horiz-adv-x="1251" d="M90 80q14 29 20.5 68.5t10.5 62.5l16 8q51 -72 155.5 -121t203.5 -49q197 0 298 87t101 251q0 141 -94 225t-260 84l-185 -6q8 14 9 45q0 14 -9 43l160 -4q154 0 236 86q74 78 73 207q0 121 -81.5 201t-233.5 80q-123 0 -209 -44t-121 -118l-12 -6l-66 116q49 45 131 78 q125 51 287 51q215 0 354 -84q154 -94 154 -260q0 -123 -85 -212t-241 -126q174 0 289 -98t115 -254q0 -207 -172 -317q-162 -104 -442 -105q-98 0 -209 31t-193 80z" />
<glyph unicode="&#xc8;" horiz-adv-x="1593" d="M184 -6v1401q8 -2 33 -4t57 -2l91 6v-1069h20l932 1069h90v-1401l-90 6l-90 -6v1118h-21l-854 -993l-106 -125h-62z" />
<glyph unicode="&#xc9;" horiz-adv-x="1593" d="M184 -6v1401q10 -2 45 -4t45 -2q23 0 45.5 1t45.5 5v-1069h20l932 1069h90v-1401l-90 6l-90 -6v1118h-21l-960 -1118h-62zM381 1563l53 84q78 -51 171 -76t198 -25q213 1 375 101l49 -82q-94 -55 -201.5 -86t-222.5 -31q-111 0 -219.5 30.5t-202.5 84.5z" />
<glyph unicode="&#xca;" horiz-adv-x="1251" d="M184 -6v1401l90 -6l91 6v-633q2 -8 19 -4t33.5 17t67.5 63q18 18 39 36l504 521l82 -6l80 6l-465 -447l-174 -176q248 -283 498 -563l165 -205v-10l-112 6l-115 -6q-33 47 -68.5 95t-72.5 91l-447 522q-10 8 -26 11q-8 -2 -8 -4v-715l-91 6z" />
<glyph unicode="&#xcb;" horiz-adv-x="1327" d="M12 -6q37 70 170 366q106 240 258 592.5t181 442.5h96q66 -162 133 -324q104 -254 266 -635q154 -365 195 -442l-99 6l-100 -6l-465 1177h-18q-145 -328 -267 -635t-200 -542l-76 6z" />
<glyph unicode="&#xcc;" horiz-adv-x="1820" d="M96 -6q43 266 113 756.5t84 644.5h53q106 -209 174 -342q82 -158 195 -363q123 -223 211 -368q295 536 590 1073h43q43 -408 53 -500q33 -301 54.5 -468t57.5 -433l-96 6l-96 -6q-18 205 -33.5 391t-35 368.5t-36.5 297.5q-125 -225 -217 -394q-106 -197 -178 -340 q-78 -158 -141 -301h-23l-112 232q-74 154 -131.5 265.5t-141.5 270.5q-72 133 -141 267q-35 -293 -67.5 -592t-32.5 -465l-72 6z" />
<glyph unicode="&#xcd;" horiz-adv-x="1593" d="M184 -6v1401l90 -6l91 6v-588q102 0 256.5 -5t175.5 -5q98 0 159 2q246 8 271 8v588l90 -6l90 6v-1401l-90 6l-90 -6v704q-100 0 -162 2q-246 8 -268 9q-98 0 -252 -5.5t-180 -5.5v-704l-91 6z" />
<glyph unicode="&#xce;" horiz-adv-x="1705" d="M86 694q0 330 219 535q211 197 539 196q319 0 532 -165q244 -190 244 -535q0 -340 -217 -548t-563 -208q-342 0 -548 198t-206 527zM287 670q0 -301 164 -473q154 -160 395 -160q289 0 448 250q125 195 125 422q0 139 -26.5 246.5t-102.5 203.5t-187.5 147.5t-238.5 51.5 q-268 0 -422.5 -187.5t-154.5 -500.5z" />
<glyph unicode="&#xcf;" horiz-adv-x="1593" d="M184 -6v1401h1223v-1401l-90 6l-90 -6v1298l-430 6l-432 -6v-1298l-91 6z" />
<glyph unicode="&#xd0;" horiz-adv-x="1175" d="M184 -6v1401h367q299 0 413.5 -74t114.5 -262q0 -180 -110 -281q-102 -92 -328 -137q-27 -6 -72 -8t-51 -2q-47 0 -83.5 2t-69.5 4v-643l-91 6zM365 717q6 -2 55 -2q18 -2 39 -2h41h32q25 4 35 4q152 14 238 104t86 228q0 111 -53 178q-59 76 -133 83t-116 7h-67 q-45 0 -83.5 -1t-73.5 -1v-598z" />
<glyph unicode="&#xd1;" horiz-adv-x="1366" d="M78 702q0 336 223 535q213 188 549 188q109 0 222.5 -24.5t217.5 -69.5q-12 -31 -24.5 -77t-18.5 -80l-14 -3q-23 29 -80 70q-150 106 -311 107q-270 0 -422 -195q-141 -180 -141 -459q0 -293 151.5 -469t396.5 -176q111 0 228 44t207 122l-11 -129q-90 -61 -208.5 -89 t-243.5 -28q-336 0 -528.5 199t-192.5 534z" />
<glyph unicode="&#xd2;" d="M41 1272l6 61l-6 62h1057l-6 -62l6 -61q-76 8 -191.5 16t-236.5 8v-1302l-90 6l-91 -6v1302q-160 0 -227 -4t-221 -20z" />
<glyph unicode="&#xd3;" horiz-adv-x="1327" d="M12 1395l127 -6l111 6q115 -190 237 -373q152 -227 291 -408h23q129 258 225 457q117 238 152 324l69 -6l74 6q-31 -51 -195 -367q-186 -358 -307 -600q-168 -336 -213 -434l-63 6l-92 -6q59 94 163 278q31 55 80 144q-78 113 -155 227q-168 244 -310 447 q-176 254 -217 305z" />
<glyph unicode="&#xd4;" horiz-adv-x="1820" d="M86 705q0 260 190 417q201 166 543 166v107q12 -2 39 -4t51 -2q59 0 90 6v-107q344 0 539 -161.5t195 -421.5q0 -256 -191 -418q-203 -172 -543 -172v-121q-31 6 -67 6h-23h-44t-46 -6v121q-340 0 -540 172q-193 164 -193 418zM287 705q0 -221 146.5 -368t385.5 -147 v1031q-248 0 -395 -152q-137 -141 -137 -364zM999 190q240 0 386.5 147t146.5 368q0 213 -137 358q-150 158 -396 158v-1031z" />
<glyph unicode="&#xd5;" horiz-adv-x="1251" d="M74 -6l248 362l227 342l-236 387l-202 310l110 -6l111 6l104 -176l217 -373q172 274 344 549l76 -6l76 6l-35 -41l-313 -436l-101 -152l476 -772l-113 6l-113 -6q-164 322 -354 622q-190 -287 -371 -622l-75 6z" />
<glyph unicode="&#xd6;" horiz-adv-x="1593" d="M184 -6v1407l90 -6l91 6v-1301h852v1301q35 -6 90 -6l90 6v-1303h114q-2 -16 -4 -45.5t-2 -36.5l6 -102h-18q-39 59 -120 72.5t-290 13.5h-295q-244 0 -369.5 -2t-234.5 -4z" />
<glyph unicode="&#xd7;" horiz-adv-x="1478" d="M147 889v506l91 -6l90 6v-506q0 -113 121 -168q96 -45 235 -45q100 0 227 40t201 91v588l90 -6l90 6v-1401l-90 6l-90 -6v704q-102 -53 -217 -86q-150 -43 -293 -43q-168 0 -299 76q-156 90 -156 244z" />
<glyph unicode="&#xd8;" horiz-adv-x="1820" d="M184 -6v1407l90 -6l91 6v-1301h454v1301l90 -6q59 0 90 6v-1301h455v1301l90 -6l90 6v-1407q-154 0 -349 2t-376 4q-266 0 -426.5 -2t-298.5 -4z" />
<glyph unicode="&#xd9;" horiz-adv-x="1820" d="M184 -6v1407l90 -6l91 6v-1301h452v1301l90 -6l90 6v-1301h453v1301q35 -6 90 -6l90 6v-1303h115q-2 -16 -4 -45.5t-2 -36.5l6 -102h-19q-39 57 -127 71.5t-282 14.5h-406q-260 0 -423.5 -2t-303.5 -4z" />
<glyph unicode="&#xda;" horiz-adv-x="1175" d="M-14 1272l6 61l-6 62h399v-633h186q299 0 414 -74t115 -262q0 -180 -111 -281q-102 -92 -327 -137q-31 -6 -126.5 -8t-111.5 -2h-39h-33h-28h-23q-33 0 -56.5 1t-39.5 1v1294q-76 0 -110 -3t-109 -19zM385 84h203q152 14 237.5 104.5t85.5 227.5q0 111 -53 178 q-59 76 -133 83t-116 7h-66q-45 0 -84 -1t-74 -1v-598z" />
<glyph unicode="&#xdb;" horiz-adv-x="1630" d="M184 0v1395l90 -6l91 6v-633h186q299 0 413.5 -74t114.5 -262q0 -184 -104.5 -282.5t-333.5 -135.5q-35 -6 -152.5 -8t-134.5 -2h-30h-27q-39 0 -66.5 1t-46.5 1zM365 84h202q152 14 238 104.5t86 227.5q0 111 -53 178q-59 76 -133 83t-116 7h-67q-45 0 -83.5 -1 t-73.5 -1v-598zM1266 -6v1401l90 -6q59 0 90 6v-1401l-90 6z" />
<glyph unicode="&#xdc;" horiz-adv-x="1175" d="M184 0v1395l90 -6l91 6v-633h186q299 0 413.5 -74t114.5 -262q0 -180 -110 -281q-102 -92 -328 -137q-31 -6 -126 -8t-112 -2h-38h-33h-29h-22q-33 0 -56.5 1t-40.5 1zM365 84h202q152 14 238 104.5t86 227.5q0 111 -53 178q-59 76 -133 83t-116 7h-67q-45 0 -83.5 -1 t-73.5 -1v-598z" />
<glyph unicode="&#xdd;" horiz-adv-x="1366" d="M76 1331q104 45 214.5 69.5t225.5 24.5q336 0 549 -188q223 -197 223 -535t-191.5 -535.5t-529.5 -197.5q-131 0 -244.5 27t-207.5 90l-11 129q92 -78 207 -122t228 -44q244 0 396 176t152 469h-571q-39 0 -103.5 -5t-78.5 -5l6 57l-6 54q37 0 102.5 -5.5t79.5 -5.5h567 q-20 246 -159 398q-152 166 -400 166q-137 0 -264 -74q-86 -49 -127 -103l-14 3q-12 63 -18.5 86.5t-24.5 70.5z" />
<glyph unicode="&#xde;" horiz-adv-x="2162" d="M184 -6v1401l90 -6l91 6v-588q35 0 71.5 -1t77.5 -1q31 0 43 2q37 283 247 450.5t505 167.5q319 0 532 -165q244 -190 244 -535q0 -340 -217 -548t-563 -208q-342 0 -548 197.5t-206 527.5q-6 2 -39 2t-51 2h-96v-704l-91 6zM752 670q0 -301 163 -473q154 -160 396 -160 q289 0 448 250q125 195 125 422q0 139 -26.5 246.5t-102.5 203.5t-187.5 147.5t-238.5 51.5q-268 0 -422.5 -187.5t-154.5 -500.5z" />
<glyph unicode="&#xdf;" horiz-adv-x="1251" d="M39 -6l39 51l98 115l422 534q-176 31 -287 119q-133 106 -133 270q0 158 109.5 235t345.5 77h434v-1401l-90 6l-90 -6v684h-78l-164 -193l-242 -313l-129 -178l-116 6zM360 1059q0 -117 72 -192.5t191 -100.5q41 -8 76.5 -10t82.5 -2h59t46 2v563q-25 0 -92.5 2t-102.5 2 q-63 0 -106 -6q-225 -37 -226 -258z" />
<glyph unicode="&#xe0;" horiz-adv-x="1024" d="M92 227q0 121 72 189.5t309 105.5q133 23 168 41q49 27 49 96q0 115 -62.5 177.5t-176.5 62.5q-98 0 -172 -53q-57 -41 -72 -88h-23v114q80 55 161 84t169 29q332 0 332 -344v-475v-60q6 -43 55 -43q27 0 60 9v-45q-10 -4 -30 -11.5t-43.5 -11.5t-56.5 -4q-59 0 -97 28.5 t-46 96.5l-18 -19q-129 -129 -303 -129q-115 0 -195 69t-80 181zM262 256q0 -94 52.5 -142t148.5 -48q39 0 86 23.5t78 53.5q23 20 32 31q23 23 23 31v299l-72 -17q-178 -35 -225 -55q-123 -55 -123 -176z" />
<glyph unicode="&#xe1;" d="M72 492q0 561 184 732t752 171l-7 -64l7 -59q-57 8 -142.5 14t-171.5 6q-221 0 -344 -117t-123 -305q68 57 162 86t203 29q211 0 343 -136t132 -364q0 -209 -129 -352q-141 -156 -383 -156q-211 0 -347 140.5t-136 374.5zM252 461q0 -174 72 -287q84 -133 247 -133 q162 0 248 166q68 129 68 289q0 168 -62 280q-79 146 -235 146q-180 0 -266 -148q-72 -121 -72 -313z" />
<glyph unicode="&#xe2;" horiz-adv-x="1024" d="M158 0v967h393q158 0 242 -52q98 -59 98 -186q0 -84 -59.5 -139t-157.5 -68q133 -23 192 -65q84 -61 84 -189q0 -129 -108 -202q-98 -68 -246 -68zM322 80h213q100 0 164.5 50t64.5 138q0 111 -57.5 159t-171.5 48h-213v-395zM322 551h192q94 0 145.5 43t51.5 131 q0 84 -51.5 123t-137.5 39h-200v-336z" />
<glyph unicode="&#xe3;" horiz-adv-x="833" d="M158 -6v973h651l-4 -56l4 -55q-59 10 -172.5 16.5t-314.5 6.5v-885l-82 6z" />
<glyph unicode="&#xe4;" horiz-adv-x="1024" d="M6 -59q4 10 4 35.5t2 39.5l-6 76h84q100 215 195 434q117 272 176 445l61 -6l64 6q51 -137 156.5 -398.5t199.5 -480.5h76l-4 -76v-38.5t4 -36.5h-14q-51 39 -124 49t-214 10h-308q-150 0 -216 -8t-119 -51h-17zM211 92h563q-41 127 -117.5 316.5t-156.5 371.5h-15 q-2 0 -47 -110q-82 -199 -108 -264q-64 -158 -119 -314z" />
<glyph unicode="&#xe5;" horiz-adv-x="1024" d="M72 481q0 223 118 359q127 145 351 145q182 0 293 -121q123 -133 122 -381l-415 6h-289q0 -184 84 -299q94 -127 270 -127q94 0 182 50q60 33 121 92l-2 -107q-80 -57 -168 -89t-184 -32q-217 0 -350 135.5t-133 368.5zM252 565h545q0 158 -52 246q-63 111 -204 111 q-137 0 -217 -113q-72 -101 -72 -244z" />
<glyph unicode="&#xe6;" horiz-adv-x="1478" d="M31 4l481 559q-125 119 -264 238q-94 78 -187 157v15l80 -6l82 6l160 -176l127 -129l74 -74q55 -53 63 -47t9 30.5t1 36.5v359l82 -6l82 6v-359q0 -20 1 -40.5t9 -26.5q10 -6 84 67l54 54l127 129l159 176l82 -6l80 6v-15q-141 -119 -246 -210q-125 -109 -204 -185 l481 -559v-10l-100 6l-103 -6q-53 70 -131 162q-59 70 -260 299q-29 33 -31 32q-2 0 -2 -75v-418l-82 6l-82 -6v418q2 55 2 65q0 8 -4 8t-30 -30q-199 -227 -258 -297q-86 -102 -134 -164l-102 6l-100 -6v10z" />
<glyph unicode="&#xe7;" horiz-adv-x="909" d="M86 43q12 37 24.5 75t18.5 75h16q37 -68 101.5 -110t161.5 -42q100 0 163.5 59.5t63.5 155.5q0 100 -62.5 158.5t-169.5 58.5l-141 -4v88l141 -4q80 0 127.5 51t47.5 131t-51.5 133.5t-133.5 53.5q-86 0 -141 -41q-47 -35 -70 -95h-18q-18 76 -49 146q35 23 94 35 q82 18 203 18q145 0 239 -59q107 -68 107 -191q0 -86 -57.5 -143t-149.5 -72q115 -14 184 -69q84 -68 84 -187q0 -137 -131 -217q-115 -70 -280 -70q-213 0 -322 66z" />
<glyph unicode="&#xe8;" d="M158 -6v979q10 -2 45 -4t37 -2h39q29 4 43 6v-713q133 143 290.5 338t286.5 375h82v-979l-82 6l-82 -6v713q-137 -154 -201 -230q-94 -111 -198.5 -243t-177.5 -240h-82z" />
<glyph unicode="&#xe9;" d="M158 -6v979l82 -6l82 6v-713q133 143 290.5 338t286.5 375h82v-979l-82 6l-82 -6v713q-137 -154 -201 -230q-94 -111 -198.5 -243t-177.5 -240h-82zM223 1159l41 70q131 -82 303 -82q174 0 305 82l41 -68q-76 -45 -165 -70.5t-181 -25.5t-178 23.5t-166 70.5z" />
<glyph unicode="&#xea;" horiz-adv-x="1024" d="M162 -6v979l82 -6l82 6v-359q-2 -29 -2 -41q0 -20 12 -26q23 -12 67 20q33 23 111 101l127 129l160 176l82 -6l80 6v-15q-141 -119 -246 -210q-125 -109 -205 -185l481 -559v-10l-100 6l-102 -6q-53 70 -132 162q-59 70 -260 299q-29 33 -47 32q-27 0 -26 -75v-418l-82 6 z" />
<glyph unicode="&#xeb;" horiz-adv-x="985" d="M23 -8q35 72 133 291q90 201 153 352q90 215 131 336l62 -6l63 6q66 -176 178 -455q125 -309 224 -524l-93 6l-90 -6q-94 311 -305 788q-27 -27 -86 -168l-76 -178l-163 -442l-66 6z" />
<glyph unicode="&#xec;" horiz-adv-x="1366" d="M70 -6q31 131 71 434q12 98 68 543h55q106 -211 223 -420t205 -342q180 311 408 762h55q25 -215 43.5 -367.5t40 -330t33.5 -279.5l-90 6l-90 -6q0 197 -25 420q-6 59 -31 248q-188 -305 -368 -668h-47q-96 186 -181 340q-98 174 -192 328q-25 -176 -47.5 -357.5 t-22.5 -310.5q-27 4 -51 6z" />
<glyph unicode="&#xed;" d="M158 -6v979l82 -6l82 6v-412q55 -4 135.5 -7t111.5 -3q82 0 147.5 3t100.5 7v412l82 -6l82 6v-979l-82 6l-82 -6v475l-248 6l-247 -6v-475l-82 6z" />
<glyph unicode="&#xee;" d="M72 492q0 217 148.5 355t371.5 138q211 0 343 -136t132 -364q0 -209 -129 -352q-141 -156 -383 -156q-211 0 -347 141t-136 374zM252 461q0 -174 72 -287q84 -133 247 -133q162 0 248 166q68 129 68 289q0 168 -62 280q-79 146 -235 146q-180 0 -266 -148 q-72 -121 -72 -313z" />
<glyph unicode="&#xef;" d="M158 -6v977l413 -4l410 4v-977l-82 6l-82 -6v883h-495v-883l-82 6z" />
<glyph unicode="&#xf0;" d="M135 -530v1503l82 -6l82 6v-195q51 90 98 131q94 80 252 80q190 0 305 -143q106 -133 107 -330q0 -248 -122 -393.5t-321 -145.5q-109 0 -185.5 49.5t-129.5 147.5l-4 -704l-82 6zM299 457q0 -174 72 -279q80 -115 229 -115q143 0 217 134q63 117 64 311q0 172 -60 272 q-72 123 -223 123q-158 0 -238 -151q-61 -119 -61 -295z" />
<glyph unicode="&#xf1;" horiz-adv-x="985" d="M72 485q0 233 147.5 366.5t382.5 133.5q94 0 172 -19.5t152 -64.5l-47 -135h-17q-12 16 -26.5 35.5t-28.5 32.5q-35 39 -90 60t-113 21q-168 0 -264 -129q-88 -119 -88 -290q0 -197 103.5 -323t269.5 -126q84 0 153 37q53 29 129 96l13 -6l-11 -94q-139 -102 -313 -103 q-250 0 -391 146q-133 137 -133 362z" />
<glyph unicode="&#xf2;" horiz-adv-x="909" d="M20 856l7 55l-7 56h869l-4 -56l4 -55q-68 10 -137.5 14t-214.5 4v-880l-82 6l-82 -6v880q-143 0 -211 -4t-142 -14z" />
<glyph unicode="&#xf3;" horiz-adv-x="1024" d="M53 973l99 -6l96 6q55 -170 132 -361.5t173 -398.5q66 133 158 365q76 188 149 395l68 -6l65 6q-96 -215 -233 -516q-127 -281 -221 -496q-125 -285 -207 -491l-70 6l-69 -6l274 532z" />
<glyph unicode="&#xf4;" horiz-adv-x="1593" d="M76 516q0 193 105.5 331t281.5 138q94 0 156.5 -28.5t95.5 -75.5v508l82 -7l82 7v-508q33 47 94 75.5t157 28.5q176 0 285 -141q102 -133 103 -328q0 -252 -111 -395.5t-307 -143.5q-143 0 -221 109v-616l-82 6l-82 -6v616q-78 -109 -221 -109q-197 0 -307.5 143.5 t-110.5 395.5zM256 502q0 -201 53 -307q66 -131 203 -132q63 0 116.5 29t86.5 84v602q-31 55 -82 88t-119 33q-129 0 -199 -123q-59 -106 -59 -274zM879 176q31 -51 86 -82t116 -31q137 0 201 130q55 111 55 309q0 168 -59 274q-68 123 -199 123q-66 0 -118 -31.5t-82 -89.5 v-602z" />
<glyph unicode="&#xf5;" horiz-adv-x="1024" d="M59 973l105 -6l104 6q43 -76 126 -195t138 -186l115 147l172 234l70 -6l72 6q-201 -215 -381 -441l383 -518v-20l-97 6l-96 -6q-45 76 -129 199q-90 133 -160 223q-68 -90 -143 -197q-102 -143 -152 -225l-61 6l-62 -6v20l369 463z" />
<glyph unicode="&#xf6;" d="M158 0v973l82 -6l82 6v-881l243 -4l252 4v881l82 -6l82 6v-881h104l-4 -76l4 -75h-14q-51 39 -124 49t-214 10h-575z" />
<glyph unicode="&#xf7;" horiz-adv-x="1062" d="M102 596v377l82 -6l82 6v-371q0 -78 66 -110q51 -27 139 -27q63 0 131 25.5t127 70.5v412l82 -6l82 6v-979l-82 6l-82 -6v475q-68 -43 -156 -70.5t-163 -27.5q-104 0 -189 43q-119 61 -119 182z" />
<glyph unicode="&#xf8;" horiz-adv-x="1478" d="M158 0v973q10 -2 45 -4t37 -2h39q29 4 43 6v-881l157 -4l178 4v881q10 -2 35 -4t47 -2h39q29 4 43 6v-881l170 -4l166 4v881q10 -2 35 -4t47 -2q57 0 82 6v-973h-1163z" />
<glyph unicode="&#xf9;" horiz-adv-x="1478" d="M158 0v973l82 -6l82 6v-881l165 -2l170 2v881q29 -6 82 -6l82 6v-881l170 -2l166 2v881l82 -6l82 6v-881h104l-4 -76l4 -75h-14q-51 39 -124 49t-214 10h-915z" />
<glyph unicode="&#xfa;" horiz-adv-x="948" d="M-16 860l6 53q0 38 -6 58q47 0 147 -1t193 -3v-402h241q150 0 238 -67q98 -76 98 -215q0 -119 -111.5 -201t-242.5 -82h-387v877h-103q-18 -2 -73 -17zM324 86q49 0 84.5 -1t64.5 -3q100 0 172 51q80 57 80 150q0 104 -64.5 152t-160.5 48h-176v-397z" />
<glyph unicode="&#xfb;" horiz-adv-x="1327" d="M158 0v973l84 -6l80 6v-408h241q145 0 236 -67q100 -76 100 -215q0 -119 -111.5 -201t-242.5 -82h-387zM322 86q25 -4 67.5 -4h81.5q100 0 172 51q80 57 80 150q0 104 -64.5 152t-160.5 48h-176v-397zM1006 -6v979l81 -6l82 6v-979l-82 6z" />
<glyph unicode="&#xfc;" horiz-adv-x="948" d="M158 0v973q31 -6 84 -6q51 0 80 6v-408h241q150 0 238 -67q98 -76 98 -215q0 -119 -111.5 -201t-242.5 -82h-387zM322 86q49 0 85.5 -1t63.5 -3q100 0 172 51q80 57 80 150q0 104 -64.5 152t-160.5 48h-176v-397z" />
<glyph unicode="&#xfd;" horiz-adv-x="985" d="M66 901q74 45 151.5 64.5t171.5 19.5q233 0 377.5 -133t144.5 -367q0 -225 -129 -360q-139 -147 -387 -148q-174 0 -313 103l-10 94l12 6q76 -68 129 -96q70 -37 154 -37q164 0 268 119t104 309h-196l-242 -6v92q31 -2 51 -2q142 -8 191 -8h194q-16 160 -100 256 q-94 109 -250 108q-53 0 -110.5 -21.5t-92.5 -59.5q-14 -12 -30.5 -35t-24.5 -33h-16z" />
<glyph unicode="&#xfe;" horiz-adv-x="1517" d="M158 -6v979l82 -6l82 6v-412h133q25 190 168 307t348 117q211 0 343 -136t132 -364q0 -209 -129 -352q-141 -156 -383 -156q-207 0 -342 134q-141 139 -141 356l-129 2v-475l-82 6zM631 461q0 -174 71 -287q84 -133 248 -133q162 0 248 166q68 129 68 289q0 168 -62 280 q-79 146 -235 146q-180 0 -267 -148q-72 -121 -71 -313z" />
<glyph unicode="&#xff;" horiz-adv-x="1024" d="M76 -6l307 416q-109 18 -176 67q-113 82 -113 236q0 111 80 182.5t193 71.5h499v-973l-80 6l-84 -6v407h-149l-289 -407l-94 6zM262 684q0 -123 121 -170q80 -31 227 -31h92v402l-239 2q-84 0 -142.5 -54.5t-58.5 -148.5z" />
<glyph unicode="&#x152;" horiz-adv-x="2048" />
<glyph unicode="&#x153;" horiz-adv-x="2048" />
<glyph unicode="&#x178;" horiz-adv-x="2048" />
<glyph unicode="&#x2c6;" horiz-adv-x="2048" />
<glyph unicode="&#x2dc;" horiz-adv-x="2048" />
<glyph unicode="&#x2000;" horiz-adv-x="869" />
<glyph unicode="&#x2001;" horiz-adv-x="1739" />
<glyph unicode="&#x2002;" horiz-adv-x="869" />
<glyph unicode="&#x2003;" horiz-adv-x="1739" />
<glyph unicode="&#x2004;" horiz-adv-x="579" />
<glyph unicode="&#x2005;" horiz-adv-x="434" />
<glyph unicode="&#x2006;" horiz-adv-x="289" />
<glyph unicode="&#x2007;" horiz-adv-x="289" />
<glyph unicode="&#x2008;" horiz-adv-x="217" />
<glyph unicode="&#x2009;" horiz-adv-x="347" />
<glyph unicode="&#x200a;" horiz-adv-x="96" />
<glyph unicode="&#x2010;" horiz-adv-x="681" d="M84 389v127h512v-127h-512z" />
<glyph unicode="&#x2011;" horiz-adv-x="681" d="M84 389v127h512v-127h-512z" />
<glyph unicode="&#x2012;" horiz-adv-x="681" d="M84 389v127h512v-127h-512z" />
<glyph unicode="&#x2013;" horiz-adv-x="1024" d="M0 403v99h1034v-99h-1034z" />
<glyph unicode="&#x2014;" horiz-adv-x="2048" d="M0 403v99h2048v-99h-2048z" />
<glyph unicode="&#x2018;" horiz-adv-x="569" d="M141 915q0 27 15 58q4 8 30 51l242 401l35 -14l-144 -455q-18 -55 -28 -73q-27 -43 -66 -43q-33 0 -58.5 21.5t-25.5 53.5z" />
<glyph unicode="&#x2019;" horiz-adv-x="569" d="M106 854l144 455q18 55 29 73q27 43 65 43q33 0 58.5 -21.5t25.5 -53.5q0 -27 -14 -58q-4 -8 -31 -51l-242 -401z" />
<glyph unicode="&#x201a;" horiz-adv-x="2048" />
<glyph unicode="&#x201c;" horiz-adv-x="909" d="M133 915q0 27 14 58q4 8 31 51l242 401l35 -14l-144 -455q-18 -55 -28 -73q-27 -43 -66 -43q-33 0 -58.5 21.5t-25.5 53.5zM481 915q0 27 15 58q4 8 30 51l242 401l35 -14l-144 -455q-18 -55 -28 -73q-27 -43 -66 -43q-33 0 -58.5 21.5t-25.5 53.5z" />
<glyph unicode="&#x201d;" horiz-adv-x="909" d="M106 854l144 455q18 55 29 73q27 43 65 43q33 0 58.5 -21.5t25.5 -53.5q0 -27 -14 -58q-4 -8 -31 -51l-242 -401zM455 854l143 455q18 55 29 73q27 43 65 43q33 0 58.5 -21.5t25.5 -53.5q0 -27 -14 -58q-4 -8 -31 -51l-242 -401z" />
<glyph unicode="&#x201e;" horiz-adv-x="2048" />
<glyph unicode="&#x2022;" horiz-adv-x="2048" />
<glyph unicode="&#x2026;" horiz-adv-x="2048" d="M219 100q0 49 37 86t88 37q47 0 84 -36.5t37 -86.5q0 -49 -35 -86t-86 -37t-88 35t-37 88zM901 100q0 49 37 86t88 37q47 0 84 -36.5t37 -86.5q0 -49 -35 -86t-86 -37t-88 35t-37 88zM1583 100q0 49 37 86t88 37q47 0 84 -36.5t37 -86.5q0 -49 -35 -86t-86 -37t-88 35 t-37 88z" />
<glyph unicode="&#x202f;" horiz-adv-x="347" />
<glyph unicode="&#x2039;" horiz-adv-x="2048" />
<glyph unicode="&#x203a;" horiz-adv-x="2048" />
<glyph unicode="&#x205f;" horiz-adv-x="434" />
<glyph unicode="&#x2122;" horiz-adv-x="1945" d="M102 1323v72h627v-72q-45 4 -126 9t-128 5v-774l-53 6l-53 -6v774q-90 0 -161 -6t-106 -8zM877 563q31 197 68.5 463t47.5 369h31q121 -238 203 -387.5t141 -249.5q174 318 350 637h25q29 -268 51.5 -462t48.5 -370l-57 6l-57 -6q-14 180 -33 362.5t-31 264.5 q-106 -190 -182 -336q-86 -164 -135 -276h-13l-67 137q-43 90 -121 237q-63 119 -125 238q-35 -311 -39 -346q-20 -193 -20 -281l-43 6z" />
<glyph unicode="&#x25fc;" horiz-adv-x="972" d="M0 0v973h973v-973h-973z" />
</font>
</defs>
</svg>
