<svg width="22" height="23" viewBox="0 0 22 23" fill="none" xmlns="http://www.w3.org/2000/svg">
<path fill-rule="evenodd" clip-rule="evenodd" d="M17.8228 8.22388C16.4805 8.22388 15.2837 7.5936 14.5181 6.61935L8.10707 10.1484C8.25729 10.5735 8.33967 11.032 8.33967 11.5049C8.33967 11.9824 8.25729 12.436 8.10235 12.8658L14.5084 16.3904C15.2691 15.4113 16.4711 14.7761 17.8181 14.7761C20.1149 14.7761 21.9903 16.6197 21.9903 18.8882C21.9903 21.1566 20.1199 23 17.8181 23C15.5163 23 13.6459 21.1566 13.6459 18.8882C13.6459 18.4106 13.7283 17.9521 13.8832 17.527L7.48196 14.0026C6.72122 14.9864 5.51946 15.6167 4.1722 15.6167C1.8754 15.6167 0 13.7733 0 11.5049C0 9.23639 1.8754 7.39284 4.17716 7.39284C5.52418 7.39284 6.72595 8.02801 7.49165 9.01187L13.8979 5.48254C13.7427 5.05273 13.6556 4.58966 13.6556 4.11209C13.6556 1.84827 15.526 0 17.8278 0C20.1296 0 22 1.84361 22 4.11209C22 6.38056 20.1246 8.22388 17.8228 8.22388Z" fill="black"/>
<mask id="mask0" mask-type="alpha" maskUnits="userSpaceOnUse" x="0" y="0" width="22" height="23">
<path fill-rule="evenodd" clip-rule="evenodd" d="M17.8228 8.22388C16.4805 8.22388 15.2837 7.5936 14.5181 6.61935L8.10707 10.1484C8.25729 10.5735 8.33967 11.032 8.33967 11.5049C8.33967 11.9824 8.25729 12.436 8.10235 12.8658L14.5084 16.3904C15.2691 15.4113 16.4711 14.7761 17.8181 14.7761C20.1149 14.7761 21.9903 16.6197 21.9903 18.8882C21.9903 21.1566 20.1199 23 17.8181 23C15.5163 23 13.6459 21.1566 13.6459 18.8882C13.6459 18.4106 13.7283 17.9521 13.8832 17.527L7.48196 14.0026C6.72122 14.9864 5.51946 15.6167 4.1722 15.6167C1.8754 15.6167 0 13.7733 0 11.5049C0 9.23639 1.8754 7.39284 4.17716 7.39284C5.52418 7.39284 6.72595 8.02801 7.49165 9.01187L13.8979 5.48254C13.7427 5.05273 13.6556 4.58966 13.6556 4.11209C13.6556 1.84827 15.526 0 17.8278 0C20.1296 0 22 1.84361 22 4.11209C22 6.38056 20.1246 8.22388 17.8228 8.22388Z" fill="white"/>
</mask>
<g mask="url(#mask0)">
</g>
</svg>
