<svg width="16" height="16" viewBox="0 0 16 16" fill="none" xmlns="http://www.w3.org/2000/svg">
<path d="M8.32 6.29895L10.003 4.18059C10.2795 3.83376 10.5541 3.49006 10.8267 3.14947C11.6444 2.12771 12.4444 1.0779 13.2267 0C13.44 0.0449125 13.6474 0.0842104 13.8489 0.117895C14.0504 0.151579 14.2578 0.168421 14.4711 0.168421C14.7556 0.168421 15.1585 0.112281 15.68 0C14.5422 1.23509 13.4341 2.45333 12.3556 3.65474C11.277 4.85615 10.2044 6.06315 9.13778 7.27579C10.2044 8.7579 11.3126 10.2232 12.4622 11.6716C13.6119 13.12 14.7911 14.5628 16 16C15.6681 15.9551 15.3481 15.9326 15.04 15.9326H13.3333C13.0252 15.9326 12.7052 15.9551 12.3733 16C11.5911 14.8996 10.7852 13.7825 9.95556 12.6484C9.12592 11.5144 8.28445 10.3747 7.43111 9.22947C6.84642 9.99299 6.26963 10.754 5.70074 11.5125L4.85333 12.6484C4.01185 13.7825 3.18815 14.8996 2.38222 16C2.00296 15.9551 1.61185 15.9326 1.20889 15.9326C0.78222 15.9326 0.379261 15.9551 0 16C1.13778 14.7424 2.25185 13.4681 3.34222 12.1768C4.4326 10.8856 5.51111 9.56632 6.57778 8.21895C5.51111 6.84912 4.43852 5.49053 3.36 4.14316L0.0355556 0L0.675555 0.0823392C0.778271 0.0948148 0.879012 0.106667 0.977778 0.117895C1.27408 0.151579 1.58815 0.168421 1.92 0.168421C2.25185 0.168421 2.56592 0.151579 2.86222 0.117895L3.80444 0C4.49186 1.0779 5.20889 2.12771 5.95556 3.14947C6.70223 4.17123 7.49037 5.22105 8.32 6.29895Z" fill="#AD9558"/>
</svg>
