<svg width="72" height="72" viewBox="0 0 72 72" fill="none" xmlns="http://www.w3.org/2000/svg">
<path d="M5.41604 44.1721C5.22958 43.9856 4.92763 43.9856 4.74117 44.1721L0.215036 48.6995C0.0285817 48.886 0.0285817 49.1881 0.215036 49.3746C0.308264 49.4678 0.430445 49.5143 0.552627 49.5143C0.674809 49.5143 0.796991 49.4678 0.890218 49.3746L5.41635 44.8471C5.60249 44.6609 5.60249 44.3586 5.41604 44.1721Z" fill="white"/>
<path d="M10.7778 50.014C10.5913 49.8275 10.2894 49.8275 10.1029 50.014L1.03315 59.0864C0.846697 59.2729 0.846697 59.5749 1.03315 59.7614C1.12638 59.8547 1.24856 59.9011 1.37042 59.9011C1.49261 59.9011 1.61479 59.8547 1.70802 59.7614L10.7778 50.689C10.9642 50.5025 10.9642 50.2005 10.7778 50.014Z" fill="white"/>
<path d="M16.3791 55.6162C16.1926 55.4297 15.8907 55.4297 15.7042 55.6162L2.60688 68.7173C2.42043 68.9038 2.42043 69.2059 2.60688 69.3924C2.70011 69.4856 2.82229 69.5321 2.94415 69.5321C3.06602 69.5321 3.18852 69.4856 3.28175 69.3924L16.3791 56.2913C16.5655 56.1051 16.5655 55.8027 16.3791 55.6162Z" fill="white"/>
<path d="M21.9797 61.2191C21.7932 61.0326 21.4913 61.0326 21.3048 61.2191L12.2351 70.2912C12.0486 70.4777 12.0486 70.7797 12.2351 70.9662C12.3283 71.0595 12.4505 71.106 12.5726 71.106C12.6948 71.106 12.817 71.0595 12.9099 70.9662L21.9797 61.8942C22.1661 61.7077 22.1661 61.4056 21.9797 61.2191Z" fill="white"/>
<path d="M27.8198 66.5824C27.6334 66.3958 27.3314 66.3958 27.145 66.5824L22.6188 71.1098C22.4324 71.2963 22.4324 71.5983 22.6188 71.7849C22.7121 71.8781 22.8343 71.9246 22.9561 71.9246C23.078 71.9246 23.2005 71.8781 23.2937 71.7849L27.8198 67.2574C28.006 67.0709 28.006 66.7685 27.8198 66.5824Z" fill="white"/>
<path d="M32.8612 39.1385C32.7617 39.039 32.6221 38.991 32.4827 39.0014L5.43294 41.4883C5.19537 41.5101 5.0112 41.7056 5.00299 41.9438C4.95465 43.3458 5.49517 44.7181 6.48587 45.7091L11.8273 51.0506C12.0124 51.2357 12.3122 51.2357 12.4973 51.0506C12.6824 50.8655 12.6824 50.5657 12.4973 50.3805L7.15591 45.0391C6.44859 44.3315 6.02306 43.3847 5.95672 42.3918L32.0019 39.9975L29.6076 66.0428C28.6151 65.9764 27.668 65.5509 26.9603 64.8433L12.4973 50.3805C12.3122 50.1954 12.0124 50.1954 11.8273 50.3805C11.6422 50.5657 11.6422 50.8655 11.8273 51.0506L26.2903 65.5136C27.2405 66.4639 28.5408 67 29.8819 67C29.94 67 29.9978 66.9991 30.0556 66.9968C30.2941 66.9886 30.4894 66.8045 30.5111 66.5669L32.998 39.517C33.0109 39.3767 32.9607 39.238 32.8612 39.1385Z" fill="white"/>
<path fill-rule="evenodd" clip-rule="evenodd" d="M49.7095 2.48597L69.5133 22.2904C70.504 23.2808 71.0445 24.6531 70.9971 26.0557C70.9892 26.2939 70.8047 26.4895 70.5672 26.5113L43.5178 28.9981C43.5033 28.9994 43.4887 29 43.4742 29C43.3491 29 43.2281 28.9504 43.139 28.8613C43.0392 28.7618 42.9893 28.6231 43.0019 28.4829L45.4887 1.43273C45.5105 1.19516 45.7057 1.01067 45.9442 1.00277C47.3487 0.956333 48.7188 1.49528 49.7095 2.48597ZM46.3919 1.9565L43.9976 28.002L70.0425 25.6078C69.9758 24.6145 69.5506 23.6678 68.843 22.9604L49.0391 3.15602C48.3318 2.44869 47.3847 2.02316 46.3919 1.9565Z" fill="white"/>
<path fill-rule="evenodd" clip-rule="evenodd" d="M71.465 25.0017C71.6032 24.9903 71.7432 25.0366 71.8455 25.1326C71.9477 25.2286 72.0038 25.3638 71.9996 25.5042C71.9597 26.8398 71.4141 28.0995 70.4636 29.0501L33.0506 66.4637C32.0998 67.4149 30.8404 67.9602 29.5042 67.9997C29.4993 68 29.4948 68 29.4899 68C29.355 68 29.2254 67.9442 29.133 67.8456C29.037 67.7433 28.9893 67.6049 29.002 67.4651L32.136 33.3936C32.3803 30.7389 34.7388 28.38 37.3938 28.1354L71.465 25.0017ZM32.3584 65.7704L69.771 28.3575C70.4107 27.7178 70.8247 26.907 70.9674 26.0309L37.4839 29.1108C35.2759 29.3139 33.3148 31.2751 33.112 33.4831L30.0319 66.9668C30.9073 66.8248 31.7184 66.4104 32.3584 65.7704Z" fill="white"/>
<path d="M46.4952 0.00202665C45.1587 0.041862 43.8996 0.587475 42.9494 1.53797L25.9601 18.5268C25.7688 18.7181 25.7688 19.028 25.9601 19.2193C26.1515 19.4107 26.4613 19.4107 26.6527 19.2193L43.642 2.23052C44.2817 1.59087 45.0924 1.17652 45.9682 1.03415L42.8883 34.5167C42.6852 36.7246 40.7241 38.6857 38.5161 38.8885L5.03259 41.9685C5.17463 41.0931 5.589 40.2821 6.22868 39.6421L26.5974 19.2742C26.7887 19.0828 26.7887 18.7729 26.5974 18.5816C26.406 18.3903 26.0961 18.3903 25.9048 18.5816L5.5361 38.9495C4.58524 39.9007 4.03994 41.1604 4.00043 42.4959C3.99618 42.6359 4.05234 42.7711 4.15455 42.8671C4.24565 42.953 4.36614 43 4.4899 43C4.50492 43 4.51994 42.9993 4.53496 42.998L38.6062 39.8641C41.2609 39.6202 43.6198 37.2614 43.8643 34.6065L46.9981 0.536212C47.0105 0.396788 46.9628 0.258018 46.8668 0.156144C46.7705 0.0539432 46.6382 -0.0126667 46.4952 0.00202665Z" fill="white"/>
</svg>
