<svg width="42" height="40" viewBox="0 0 42 40" fill="none" xmlns="http://www.w3.org/2000/svg">
<mask id="mask0" mask-type="alpha" maskUnits="userSpaceOnUse" x="7" y="8" width="27" height="27">
<path fill-rule="evenodd" clip-rule="evenodd" d="M20.5006 8.21057C20.783 8.21057 21.0457 8.35547 21.193 8.59277C21.3206 8.80127 21.5256 9.13757 21.7564 9.54242C28.3088 10.1646 33.4475 15.5976 33.4475 22.188C33.4475 29.1944 27.6407 34.8948 20.5006 34.8948C13.362 34.8948 7.55371 29.1944 7.55371 22.188C7.55371 15.5976 12.6924 10.1649 19.2448 9.54257C19.4756 9.13787 19.6806 8.80127 19.8082 8.59277C19.9555 8.35547 20.2182 8.21057 20.5006 8.21057ZM22.6675 11.2746C23.0411 12.0719 23.3326 12.8574 23.3326 13.3727C23.3326 13.5495 23.3144 13.7223 23.2825 13.8902C26.8328 15.0392 29.4022 18.3242 29.4022 22.188C29.4022 27.0048 25.4085 30.9239 20.5006 30.9239C15.5927 30.9239 11.599 27.0048 11.599 22.188C11.599 18.3242 14.1684 15.0389 17.7187 13.8899C17.6868 13.7223 17.6686 13.5495 17.6686 13.3727C17.6686 12.8574 17.9601 12.0722 18.3337 11.2752C13.1191 12.2705 9.17093 16.7849 9.17093 22.188C9.17093 28.3187 14.2534 33.3065 20.5006 33.3065C26.7478 33.3065 31.8303 28.3187 31.8303 22.188C31.8303 16.7846 27.8821 12.2699 22.6675 11.2746ZM22.5187 15.3209C22.0039 15.8337 21.2902 16.1523 20.5006 16.1523C19.7125 16.1523 18.9973 15.834 18.484 15.3215C15.4455 16.1823 13.2178 18.9338 13.2178 22.188C13.2178 26.1291 16.4856 29.3355 20.5006 29.3355C24.5156 29.3355 27.7834 26.1291 27.7834 22.188C27.7834 18.9338 25.5557 16.1817 22.5187 15.3209ZM20.5006 10.5999C19.8385 11.796 19.2873 12.9821 19.2873 13.3727C19.2873 14.0295 19.8309 14.564 20.5006 14.564C21.1703 14.564 21.7139 14.0295 21.7139 13.3727C21.7139 12.9821 21.1627 11.796 20.5006 10.5999Z" fill="white"/>
</mask>
<g mask="url(#mask0)">
<path fill-rule="evenodd" clip-rule="evenodd" d="M-0.0390625 0.710571H41.0399V42.3948H-0.0390625V0.710571Z" fill="black" fill-opacity="0.4917"/>
</g>
<mask id="mask1" mask-type="alpha" maskUnits="userSpaceOnUse" x="32" y="7" width="7" height="9">
<path fill-rule="evenodd" clip-rule="evenodd" d="M33.1851 7.18427C33.3734 7.18427 33.5556 7.25522 33.7014 7.38467C34.7309 8.30207 35.68 9.33572 36.5243 10.4556C37.3732 11.5808 38.1203 12.8013 38.7459 14.0852C38.957 14.5191 38.8067 15.0599 38.4088 15.2907C38.2904 15.3593 38.1582 15.3948 38.0261 15.3948C37.7224 15.3948 37.4461 15.2142 37.3048 14.9228C36.1447 12.5459 34.5852 10.4733 32.6673 8.76452C32.4987 8.61392 32.3939 8.40092 32.3727 8.16422C32.3499 7.92722 32.4137 7.69547 32.5519 7.51097C32.7083 7.30262 32.9376 7.18427 33.1851 7.18427Z" fill="white"/>
</mask>
<g mask="url(#mask1)">
<path fill-rule="evenodd" clip-rule="evenodd" d="M24.7764 -0.315735H46.435V22.8948H24.7764V-0.315735Z" fill="black" fill-opacity="0.4917"/>
</g>
<mask id="mask2" mask-type="alpha" maskUnits="userSpaceOnUse" x="37" y="18" width="4" height="10">
<path fill-rule="evenodd" clip-rule="evenodd" d="M40.2768 18.6697C40.494 18.7972 40.6367 18.975 40.6792 19.1689C40.8918 20.1477 40.9997 21.15 40.9997 22.1475C40.9997 23.8219 40.6975 25.4871 40.1037 27.0957C39.9701 27.4575 39.4963 27.7105 38.9527 27.7105C38.854 27.7105 38.7553 27.7021 38.6596 27.6859C38.3529 27.6321 38.0932 27.4993 37.9307 27.3123C37.7682 27.1249 37.7212 26.9055 37.8001 26.6943C38.3468 25.2174 38.6232 23.6871 38.6232 22.1475C38.6232 21.2299 38.5245 20.3092 38.3286 19.4095C38.2815 19.1941 38.3605 18.9787 38.5488 18.8037C38.7386 18.6291 39.0149 18.5149 39.3293 18.4822C39.6694 18.4482 40.0172 18.5172 40.2768 18.6697Z" fill="white"/>
</mask>
<g mask="url(#mask2)">
<path fill-rule="evenodd" clip-rule="evenodd" d="M30.1699 10.9737H48.5926V35.2105H30.1699V10.9737Z" fill="black" fill-opacity="0.4917"/>
</g>
<mask id="mask3" mask-type="alpha" maskUnits="userSpaceOnUse" x="31" y="31" width="8" height="8">
<path fill-rule="evenodd" clip-rule="evenodd" d="M37.9656 31.8157C38.1402 31.8157 38.3073 31.8642 38.4515 31.9563C38.8539 32.2131 38.9633 32.7331 38.6945 33.1161C37.9003 34.2495 36.9847 35.3124 35.9718 36.2749C34.9589 37.2378 33.8413 38.1084 32.6508 38.8611C32.5065 38.9523 32.3395 39 32.1664 39C31.8718 39 31.5985 38.8602 31.436 38.6263C31.3069 38.4397 31.2598 38.2162 31.3069 37.998C31.354 37.7788 31.4861 37.59 31.682 37.4668C33.8929 36.0685 35.7622 34.2922 37.2352 32.1868C37.3992 31.9543 37.671 31.8157 37.9656 31.8157Z" fill="white"/>
</mask>
<g mask="url(#mask3)">
<path fill-rule="evenodd" clip-rule="evenodd" d="M23.6963 24.3157H46.4346V46.5H23.6963V24.3157Z" fill="black" fill-opacity="0.4917"/>
</g>
<mask id="mask4" mask-type="alpha" maskUnits="userSpaceOnUse" x="2" y="31" width="8" height="8">
<path fill-rule="evenodd" clip-rule="evenodd" d="M3.03365 31.8157C3.32824 31.8157 3.60006 31.9543 3.76254 32.1868C5.23702 34.2922 7.1048 36.0678 9.31728 37.4668C9.51317 37.59 9.64528 37.7788 9.69235 37.998C9.73943 38.2162 9.69235 38.4397 9.56328 38.6263C9.4008 38.8602 9.12746 39 8.83287 39C8.65976 39 8.49272 38.9523 8.34846 38.8611C7.15795 38.1084 6.04183 37.2378 5.02746 36.2749C4.01461 35.3124 3.09895 34.2495 2.30628 33.1161C2.17569 32.9305 2.12861 32.7079 2.17417 32.4888C2.21972 32.2699 2.35335 32.0808 2.54772 31.9563C2.69198 31.8642 2.86054 31.8157 3.03365 31.8157Z" fill="white"/>
</mask>
<g mask="url(#mask4)">
<path fill-rule="evenodd" clip-rule="evenodd" d="M-5.43457 24.3157H17.3037V46.5H-5.43457V24.3157Z" fill="black" fill-opacity="0.4917"/>
</g>
<mask id="mask5" mask-type="alpha" maskUnits="userSpaceOnUse" x="2" y="7" width="7" height="9">
<path fill-rule="evenodd" clip-rule="evenodd" d="M7.81453 7.18427C8.06053 7.18427 8.29134 7.30367 8.44775 7.51097C8.73323 7.89137 8.68008 8.45387 8.33234 8.76452C6.41445 10.4733 4.85493 12.5448 3.69478 14.9228C3.55356 15.2142 3.27719 15.3948 2.97501 15.3948C2.84138 15.3948 2.70927 15.3593 2.59082 15.2907C2.19297 15.0599 2.04264 14.5191 2.25371 14.0862C2.87934 12.8024 3.62645 11.5808 4.4753 10.4556C5.3196 9.33572 6.26867 8.30207 7.29823 7.38467C7.44401 7.25522 7.62775 7.18427 7.81453 7.18427Z" fill="white"/>
</mask>
<g mask="url(#mask5)">
<path fill-rule="evenodd" clip-rule="evenodd" d="M-5.43457 -0.315735H16.2241V22.8948H-5.43457V-0.315735Z" fill="black" fill-opacity="0.4917"/>
</g>
<mask id="mask6" mask-type="alpha" maskUnits="userSpaceOnUse" x="0" y="18" width="4" height="10">
<path fill-rule="evenodd" clip-rule="evenodd" d="M1.46614 18.474L1.67037 18.4823C2.31878 18.5492 2.76826 18.9642 2.67107 19.4097C2.47519 20.31 2.37648 21.231 2.37648 22.1475C2.37648 23.6865 2.65285 25.2164 3.20104 26.6943C3.36048 27.1308 2.9763 27.5751 2.34156 27.6851C2.24437 27.7022 2.14567 27.7106 2.04696 27.7106C1.50333 27.7106 1.03107 27.4575 0.895926 27.0957C0.302185 25.4865 0 23.822 0 22.1475C0 21.15 0.107815 20.1477 0.320407 19.1691C0.362926 18.9752 0.505667 18.7973 0.722815 18.6699C0.878615 18.5779 1.06612 18.5165 1.26467 18.4895L1.46614 18.474Z" fill="white"/>
</mask>
<g mask="url(#mask6)">
<path fill-rule="evenodd" clip-rule="evenodd" d="M-7.59277 10.9737H10.8299V35.2105H-7.59277V10.9737Z" fill="black" fill-opacity="0.4917"/>
</g>
<mask id="mask7" mask-type="alpha" maskUnits="userSpaceOnUse" x="17" y="0" width="7" height="7">
<path fill-rule="evenodd" clip-rule="evenodd" d="M20.5002 0C22.2844 0 23.7377 1.38135 23.7377 3.0789C23.7377 4.7766 22.2844 6.15795 20.5002 6.15795C18.7159 6.15795 17.2627 4.7766 17.2627 3.0789C17.2627 1.38135 18.7159 0 20.5002 0ZM20.5002 1.53945C19.6073 1.53945 18.8814 2.2302 18.8814 3.0789C18.8814 3.92775 19.6073 4.61835 20.5002 4.61835C21.3931 4.61835 22.1189 3.92775 22.1189 3.0789C22.1189 2.2302 21.3931 1.53945 20.5002 1.53945Z" fill="white"/>
</mask>
<g mask="url(#mask7)">
<path fill-rule="evenodd" clip-rule="evenodd" d="M9.66992 -7.5H31.3301V13.6579H9.66992V-7.5Z" fill="black" fill-opacity="0.4917"/>
</g>
</svg>
