<svg width="23" height="22" viewBox="0 0 23 22" fill="none" xmlns="http://www.w3.org/2000/svg">
<path fill-rule="evenodd" clip-rule="evenodd" d="M22.341 11.0975C21.9749 11.0975 21.682 11.3898 21.682 11.7552V17.7374C21.682 19.3644 20.3545 20.6849 18.729 20.6849H4.271C2.64076 20.6849 1.31803 19.3597 1.31803 17.7374V11.6577C1.31803 11.2924 1.0251 11 0.659015 11C0.29293 11 0 11.2924 0 11.6577V17.7374C0 20.0904 1.91835 22 4.271 22H18.729C21.0867 22 23 20.0857 23 17.7374V11.7552C23 11.3946 22.7071 11.0975 22.341 11.0975Z" fill="#8D8D8D"/>
<path fill-rule="evenodd" clip-rule="evenodd" d="M10.5242 16.7962C10.6552 16.9286 10.8314 17 11.0025 17C11.1735 17 11.3498 16.9338 11.4806 16.7962L15.7998 12.4225C16.0667 12.1522 16.0667 11.7191 15.7998 11.4488C15.5331 11.1787 15.1052 11.1787 14.8384 11.4488L11.6821 14.6501V0.688217C11.6821 0.30591 11.38 0 11.0025 0C10.6249 0 10.3229 0.30591 10.3229 0.688217V14.6501L7.16157 11.4488C6.89464 11.1787 6.46668 11.1787 6.20001 11.4488C5.93333 11.7191 5.93333 12.1522 6.20001 12.4225L10.5242 16.7962Z" fill="#8D8D8D"/>
</svg>
