<svg width="18" height="19" viewBox="0 0 18 19" fill="none" xmlns="http://www.w3.org/2000/svg">
<mask id="mask0" mask-type="alpha" maskUnits="userSpaceOnUse" x="0" y="0" width="18" height="19">
<path fill-rule="evenodd" clip-rule="evenodd" d="M0.0512695 18.7924H17.3733V0.836548H0.0512695V18.7924V18.7924Z" fill="white"/>
</mask>
<g mask="url(#mask0)">
<path fill-rule="evenodd" clip-rule="evenodd" d="M16.4173 0.836548H1.00728C0.479236 0.836548 0.0512695 1.28017 0.0512695 1.82754V17.8014C0.0512695 18.3487 0.479236 18.7924 1.00728 18.7924H9.30356V11.839H7.04612V9.12905H9.30356V7.13058C9.30356 4.81141 10.67 3.54855 12.6659 3.54855C13.622 3.54855 14.4436 3.62229 14.6831 3.65525V6.07898L13.2988 6.07965C12.2134 6.07965 12.0032 6.6143 12.0032 7.39888V9.12905H14.5919L14.2549 11.839H12.0032V18.7924H16.4173C16.9453 18.7924 17.3733 18.3487 17.3733 17.8014V1.82754C17.3733 1.28017 16.9453 0.836548 16.4173 0.836548" fill="#EBCB80"/>
</g>
</svg>
