<svg width="27" height="27" viewBox="0 0 27 27" fill="none" xmlns="http://www.w3.org/2000/svg">
<mask id="mask0" mask-type="alpha" maskUnits="userSpaceOnUse" x="0" y="0" width="27" height="27">
<path fill-rule="evenodd" clip-rule="evenodd" d="M0 0H26.9231V27H0V0Z" fill="white"/>
</mask>
<g mask="url(#mask0)">
<path fill-rule="evenodd" clip-rule="evenodd" d="M26.9231 13.1528C26.9231 20.4154 21.006 26.3044 13.7068 26.3044C11.3888 26.3044 9.21106 25.7108 7.31784 24.6679L0 27L2.38531 19.944C1.18162 17.9618 0.489477 15.6371 0.489477 13.1528C0.489477 5.88863 6.40657 0 13.7068 0C21.006 0 26.9231 5.88863 26.9231 13.1528ZM13.7068 2.09475C7.5781 2.09475 2.59434 7.0545 2.59434 13.1528C2.59434 15.5711 3.37997 17.8125 4.71079 19.6361L3.32313 23.742L7.59268 22.3815C9.3468 23.5358 11.4487 24.2096 13.7068 24.2096C19.833 24.2096 24.8182 19.2495 24.8182 13.1528C24.8182 7.0545 19.833 2.09475 13.7068 2.09475ZM20.3808 16.182C20.2989 16.0474 20.0827 15.9668 19.76 15.8055C19.4358 15.6446 17.8421 14.8639 17.5456 14.757C17.2491 14.6497 17.0315 14.5957 16.8168 14.9179C16.6007 15.2404 15.9796 15.9668 15.79 16.182C15.6015 16.3976 15.4131 16.4239 15.0889 16.2626C14.7643 16.1017 13.7199 15.7601 12.483 14.6632C11.5205 13.8075 10.8702 12.753 10.6802 12.4305C10.4921 12.1084 10.6615 11.934 10.822 11.7731C10.9682 11.628 11.1465 11.3966 11.3084 11.2091C11.4707 11.0201 11.5246 10.8851 11.6326 10.6699C11.7407 10.4546 11.6869 10.2671 11.605 10.1059C11.5246 9.945 10.8762 8.35838 10.6058 7.71225C10.3373 7.068 10.067 7.17488 9.87703 7.17488C9.68857 7.17488 9.47244 7.14825 9.2563 7.14825C9.04017 7.14825 8.68942 7.22888 8.3929 7.55137C8.09637 7.8735 7.25951 8.65425 7.25951 10.2394C7.25951 11.8256 8.41944 13.3594 8.58136 13.5731C8.74364 13.7887 10.822 17.1502 14.1159 18.441C17.4099 19.7314 17.4099 19.3009 18.0041 19.2465C18.5971 19.194 19.9205 18.4673 20.1908 17.7143C20.4612 16.9613 20.4612 16.3155 20.3808 16.182Z" fill="#EBCB80"/>
</g>
</svg>
