<svg width="26" height="27" viewBox="0 0 26 27" fill="none" xmlns="http://www.w3.org/2000/svg">
<mask id="mask0" mask-type="alpha" maskUnits="userSpaceOnUse" x="0" y="0" width="26" height="27">
<path fill-rule="evenodd" clip-rule="evenodd" d="M0 26.0013H25.9934V0H0V26.0013Z" fill="white"/>
</mask>
<g mask="url(#mask0)">
<path fill-rule="evenodd" clip-rule="evenodd" d="M23.1053 7.22408C23.1053 7.62303 22.782 7.94649 22.3832 7.94649H18.773C18.3743 7.94649 18.051 7.62303 18.051 7.22408V3.61204C18.051 3.21309 18.3743 2.88963 18.773 2.88963H22.3832C22.782 2.88963 23.1053 3.21309 23.1053 3.61204V7.22408ZM23.1053 22.3946C23.1053 22.7936 22.782 23.1171 22.3832 23.1171H3.6102C3.21145 23.1171 2.88816 22.7936 2.88816 22.3946V10.8361H5.35338C5.15861 11.525 5.05427 12.252 5.05427 13.0033C5.05427 17.3921 8.61023 20.9498 12.9967 20.9498C17.3832 20.9498 20.9391 17.3921 20.9391 13.0033C20.9391 12.252 20.8348 11.525 20.64 10.8361H23.1053V22.3946ZM12.9967 7.94649C15.7881 7.94649 18.051 10.2105 18.051 13.0033C18.051 15.7962 15.7881 18.0602 12.9967 18.0602C10.2053 18.0602 7.94243 15.7962 7.94243 13.0033C7.94243 10.2105 10.2053 7.94649 12.9967 7.94649ZM22.3832 0H3.6102C1.61637 0 0 1.6172 0 3.61204V22.3946C0 24.3895 1.61637 26.0067 3.6102 26.0067H22.3832C24.377 26.0067 25.9934 24.3895 25.9934 22.3946V3.61204C25.9934 1.6172 24.377 0 22.3832 0Z" fill="#EBCB80"/>
</g>
</svg>
