<svg width="18" height="19" viewBox="0 0 18 19" fill="none" xmlns="http://www.w3.org/2000/svg">
<mask id="mask0" mask-type="alpha" maskUnits="userSpaceOnUse" x="0" y="0" width="18" height="19">
<path fill-rule="evenodd" clip-rule="evenodd" d="M0.0256348 18.7958H17.3546V0.836548H0.0256348V18.7958V18.7958Z" fill="white"/>
</mask>
<g mask="url(#mask0)">
<path fill-rule="evenodd" clip-rule="evenodd" d="M15.4291 5.82626C15.4291 6.10182 15.2136 6.32523 14.9478 6.32523H12.541C12.2752 6.32523 12.0596 6.10182 12.0596 5.82626V3.3314C12.0596 3.05585 12.2752 2.83243 12.541 2.83243H14.9478C15.2136 2.83243 15.4291 3.05585 15.4291 3.3314V5.82626V5.82626ZM15.4291 16.3047C15.4291 16.5802 15.2136 16.8036 14.9478 16.8036H2.43243C2.1666 16.8036 1.95107 16.5802 1.95107 16.3047V8.32112H3.59455C3.46471 8.79695 3.39515 9.2991 3.39515 9.81803C3.39515 12.8493 5.76578 15.3067 8.6901 15.3067C11.6144 15.3067 13.9851 12.8493 13.9851 9.81803C13.9851 9.2991 13.9155 8.79695 13.7856 8.32112H15.4291V16.3047V16.3047ZM8.6901 6.32523C10.551 6.32523 12.0596 7.88901 12.0596 9.81803C12.0596 11.7471 10.551 13.3108 8.6901 13.3108C6.82916 13.3108 5.32058 11.7471 5.32058 9.81803C5.32058 7.88901 6.82916 6.32523 8.6901 6.32523V6.32523ZM14.9478 0.836548H2.43243C1.10322 0.836548 0.0256348 1.95356 0.0256348 3.3314V16.3047C0.0256348 17.6825 1.10322 18.7995 2.43243 18.7995H14.9478C16.277 18.7995 17.3546 17.6825 17.3546 16.3047V3.3314C17.3546 1.95356 16.277 0.836548 14.9478 0.836548V0.836548Z" fill="#EBCB80"/>
</g>
</svg>
