<svg width="50" height="72" viewBox="0 0 50 72" fill="none" xmlns="http://www.w3.org/2000/svg">
<path fill-rule="evenodd" clip-rule="evenodd" d="M0 25.3125C0 11.3552 11.215 0 25 0C38.785 0 50 11.3552 50 25.3125C50 29.8883 48.7807 34.3727 46.4738 38.2809L27.1344 70.9746C26.7613 71.6057 26.0901 71.9942 25.3636 72H25.3471C24.6268 72 23.9571 71.6231 23.5769 71.0028L3.73181 38.6229C1.29014 34.6303 0 30.0282 0 25.3125ZM25.3341 68.3087L43.9509 36.8655C45.9837 33.4247 47.0735 29.4725 47.0735 25.438C47.0735 13.1341 37.1632 3.09421 25 3.09421C12.8368 3.09421 2.91176 13.1341 2.91176 25.438C2.91176 29.5959 4.07853 33.6517 6.23044 37.1672L25.3341 68.3087Z" fill="white"/>
<path fill-rule="evenodd" clip-rule="evenodd" d="M14 26.5C14 20.1589 19.1589 15 25.5 15C31.8411 15 37 20.1589 37 26.5C37 32.7313 32.0043 38 25.5 38C19.075 38 14 32.8006 14 26.5ZM16.6244 26.5C16.6244 31.39 20.5967 35.3756 25.5 35.3756C30.481 35.3756 34.3609 31.3186 34.3609 26.5C34.3609 21.6222 30.3778 17.6244 25.5 17.6244C20.6222 17.6244 16.6244 21.6222 16.6244 26.5Z" fill="white"/>
</svg>
