<svg width="29" height="42" viewBox="0 0 29 42" fill="none" xmlns="http://www.w3.org/2000/svg">
<mask id="mask0" mask-type="alpha" maskUnits="userSpaceOnUse" x="0" y="0" width="29" height="42">
<path fill-rule="evenodd" clip-rule="evenodd" d="M28.42 0C28.739 0 29 0.3141 29 0.7008C29 1.04387 28.7938 1.33087 28.5239 1.39042L28.42 1.40175H26.68V4.2009H23.78V11.3548C23.78 13.1267 23.0958 14.7818 21.9375 15.8462L21.6996 16.0511L15.544 21L21.6996 25.9489C22.9202 26.9326 23.6806 28.5383 23.7709 30.2925L23.78 30.6451V37.7991H26.68V40.5983H28.42C28.739 40.5983 29 40.9132 29 41.2992C29 41.5927 28.8497 41.8443 28.6377 41.9486H0.362252C0.217902 41.8776 0.102127 41.7382 0.0429688 41.5638V41.0349C0.115255 40.8218 0.272078 40.6607 0.462274 40.6128L0.579987 40.5983H2.31999V37.7991H5.21999V30.6451C5.21999 28.8733 5.90415 27.2183 7.06244 26.1538L7.30036 25.9489L13.456 21L7.30036 16.0511C6.07978 15.0675 5.31933 13.4617 5.22905 11.7075L5.21999 11.3548V4.2009H2.31999V1.40175H0.579987C0.338188 1.40175 0.129713 1.22077 0.0429688 0.965085V0.436224C0.115255 0.223093 0.272078 0.0622468 0.462274 0.0145519L0.579987 0H28.42ZM25.52 39.2009H3.47999V40.5983H25.52V39.2009ZM14.5 21.8409L7.94446 27.1145C7.03314 27.8482 6.46531 29.0376 6.38884 30.3422L6.37999 30.6451V37.7991H22.62V30.6451C22.62 29.3249 22.1173 28.0936 21.2597 27.2917L21.0555 27.1145L14.5 21.8409ZM22.62 4.2009H6.37999V11.3549C6.37999 12.6751 6.88272 13.9064 7.74032 14.7083L7.94446 14.8856L14.5 20.1591L21.0555 14.8856C21.9668 14.1518 22.5347 12.9624 22.6111 11.6578L22.62 11.3549V4.2009ZM25.52 1.40175H3.47999V2.79915H25.52V1.40175Z" fill="white"/>
</mask>
<g mask="url(#mask0)">
<path fill-rule="evenodd" clip-rule="evenodd" d="M-7.63184 -7.5H36.6313V49.5H-7.63184V-7.5Z" fill="black" fill-opacity="0.4917"/>
</g>
<mask id="mask1" mask-type="alpha" maskUnits="userSpaceOnUse" x="7" y="7" width="9" height="8">
<path fill-rule="evenodd" clip-rule="evenodd" d="M8.45877 7.34998C8.92582 7.34998 9.31375 7.62153 9.38666 7.97535L9.39898 8.09608V9.75223C9.39898 10.2109 9.65223 10.6386 10.0891 10.9275L10.2613 11.0292L14.619 13.3354C15.0509 13.5609 15.1654 14.0229 14.8815 14.3694C14.6983 14.5836 14.3992 14.7 14.097 14.7C13.9779 14.7 13.8562 14.6805 13.7425 14.6427L13.5796 14.5723L9.22192 12.2698C8.23851 11.7523 7.61924 10.9093 7.52978 9.98488L7.51855 9.75223V8.09608C7.51855 7.68523 7.94134 7.34998 8.45877 7.34998Z" fill="white"/>
</mask>
<g mask="url(#mask1)">
<path fill-rule="evenodd" clip-rule="evenodd" d="M-0.112305 -0.150024H22.6695V22.2H-0.112305V-0.150024Z" fill="black" fill-opacity="0.4917"/>
</g>
<mask id="mask2" mask-type="alpha" maskUnits="userSpaceOnUse" x="13" y="28" width="9" height="8">
<path fill-rule="evenodd" clip-rule="evenodd" d="M15.2719 28.4115L15.4204 28.4762L19.7781 30.78C20.7615 31.2969 21.3808 32.1399 21.4702 33.0653L21.4814 33.2982V34.9538C21.4814 35.3655 21.0587 35.7 20.5412 35.7C20.0742 35.7 19.6863 35.4291 19.6133 35.0747L19.601 34.9538V33.2982C19.601 32.8386 19.3478 32.4115 18.9109 32.1226L18.7387 32.021L14.381 29.7171C13.9491 29.4879 13.8346 29.0258 14.1185 28.6839C14.3749 28.3767 14.8641 28.2704 15.2719 28.4115Z" fill="white"/>
</mask>
<g mask="url(#mask2)">
<path fill-rule="evenodd" clip-rule="evenodd" d="M6.33203 20.85H29.1138V43.2H6.33203V20.85Z" fill="black" fill-opacity="0.4917"/>
</g>
</svg>
