<svg width="23" height="23" viewBox="0 0 23 23" fill="none" xmlns="http://www.w3.org/2000/svg">
<path fill-rule="evenodd" clip-rule="evenodd" d="M22.8258 20.7262L16.3997 14.3597C17.6945 12.5406 18.3659 10.2429 18.0302 7.80163C17.4548 3.6849 14.0979 0.429819 9.92576 0.0468676C4.26703 -0.527559 -0.528504 4.25933 0.0469602 9.95573C0.430603 14.0725 3.69157 17.4711 7.81573 18.0456C10.2614 18.3807 12.5633 17.7105 14.3856 16.418L20.7637 22.7846C21.0514 23.0718 21.483 23.0718 21.7707 22.7846L22.7778 21.7793C23.0655 21.4921 23.0655 21.0134 22.8258 20.7262Z" fill="#ad9558"/>
<path fill-rule="evenodd" clip-rule="evenodd" d="M2.87634 9.04618C2.87634 5.64749 5.65775 2.87109 9.06258 2.87109C12.4674 2.87109 15.2488 5.64749 15.2488 9.04618C15.2488 12.4449 12.4674 15.2213 9.06258 15.2213C5.65775 15.2213 2.87634 12.4927 2.87634 9.04618H2.87634Z" fill="#00193E"/>
</svg>
