<svg width="58" height="21" viewBox="0 0 58 21" fill="none" xmlns="http://www.w3.org/2000/svg">
<mask id="mask0" mask-type="alpha" maskUnits="userSpaceOnUse" x="0" y="0" width="58" height="21">
<path fill-rule="evenodd" clip-rule="evenodd" d="M47.1618 0.0770874C49.4679 0.0770874 51.5924 0.87219 53.2802 2.20358L53.6118 2.47694L53.6851 2.41094C54.0316 2.09399 54.5688 2.11889 54.8848 2.46854C55.1656 2.7788 55.1763 3.24018 54.9308 3.5618L54.8268 3.67529L54.8054 3.69584C55.9733 5.11042 56.7595 6.85365 57.0076 8.76424L57.0552 9.20804H57.1498C57.5729 9.20804 57.9231 9.51823 57.9889 9.92406L57.9954 10.011L57.997 10.3227C57.8619 16.0904 53.2493 20.764 47.5259 20.9551L47.1613 20.9611C43.2842 20.9611 39.8762 18.9035 37.9605 15.8171L37.7611 15.4825H30.5562C30.3036 15.9672 29.8334 16.3169 29.2703 16.403L29.0549 16.4227L2.74889 17.2494C2.72051 17.2503 2.69166 17.2506 2.66296 17.2506C1.96727 17.2506 1.31233 16.984 0.810016 16.4944C0.345744 16.0423 0.0668319 15.4517 0.0105831 14.8123L0 14.5704V11.0337C0 10.3021 0.287711 9.61859 0.810016 9.10904C1.27469 8.6561 1.86938 8.39482 2.50766 8.35762L2.74889 8.35424L29.0549 9.18119C29.6394 9.19905 30.1465 9.49734 30.4515 9.94603L30.5562 10.1211H36.324L36.3233 10.0626C36.3233 9.63815 36.6314 9.28551 37.0349 9.21923L37.1727 9.20804H37.2681C37.4617 6.92091 38.425 4.85211 39.896 3.2634L40.1969 2.95214L40.1552 2.88884C39.8945 2.49659 40.0005 1.96604 40.3906 1.70444C40.752 1.46189 41.2308 1.53584 41.5062 1.85954C43.112 0.736937 45.062 0.0770874 47.1618 0.0770874ZM47.1618 1.78559C45.5581 1.78559 44.0613 2.25043 42.7946 3.0514L42.4549 3.27809L42.5902 3.48194C42.8504 3.87464 42.7454 4.40474 42.3548 4.66649C42.2098 4.76399 42.0462 4.81034 41.8839 4.81034C41.6556 4.81034 41.4304 4.71753 41.2669 4.54362L41.1766 4.42964L41.1608 4.40564C40.0536 5.59281 39.2886 7.10564 39.0284 8.78486L38.974 9.20804H41.4972L41.7531 8.01899C41.8523 7.55804 42.3052 7.26464 42.7636 7.36454C43.1762 7.45431 43.453 7.83168 43.4321 8.24272L43.4139 8.38064L43.2358 9.20804H50.7943C51.2628 9.20804 51.6444 9.59099 51.6444 10.0626C51.6444 10.4872 51.3353 10.8394 50.9319 10.9057L50.7943 10.9168H38.0616C38.4912 15.5851 42.4084 19.2525 47.1618 19.2525C51.7958 19.2525 55.6348 15.7662 56.2227 11.265L56.2615 10.9168H54.4269C53.9568 10.9168 53.5767 10.5343 53.5767 10.0626C53.5767 9.63774 53.8846 9.28543 54.2889 9.21922L54.4269 9.20804H55.3488C55.1809 7.56374 54.5307 6.06134 53.5462 4.84469C53.389 4.97354 53.1982 5.03864 53.0074 5.03864C52.7769 5.03864 52.5465 4.94414 52.3786 4.75919C52.0916 4.44119 52.0886 3.96554 52.3511 3.64379C50.9347 2.48324 49.1277 1.78559 47.1618 1.78559ZM2.69608 10.0626C2.43188 10.0533 2.18233 10.1508 1.99306 10.3356C1.84153 10.4839 1.7446 10.672 1.71189 10.877L1.69955 11.0337V14.5704C1.69955 14.8356 1.80365 15.0835 1.99306 15.268C2.14447 15.4158 2.33447 15.5077 2.53968 15.5343L2.69608 15.5418L23.6104 14.8846V10.7197L2.69608 10.0626ZM25.3094 10.7728V14.8311L29.0018 14.7148C29.0231 14.7142 29.0412 14.7025 29.051 14.6854L29.0586 14.6563V10.9476C29.0586 10.9262 29.0476 10.9076 29.0307 10.8973L29.0018 10.8888L25.3094 10.7728ZM36.4663 11.8303H30.7579V13.7737H36.9706C36.7453 13.1505 36.5759 12.5004 36.4663 11.8303Z" fill="white"/>
</mask>
<g mask="url(#mask0)">
<path fill-rule="evenodd" clip-rule="evenodd" d="M-7.63184 -7.42291H65.6313V28.4611H-7.63184V-7.42291Z" fill="black" fill-opacity="0.4917"/>
</g>
<mask id="mask1" mask-type="alpha" maskUnits="userSpaceOnUse" x="47" y="2" width="3" height="4">
<path fill-rule="evenodd" clip-rule="evenodd" d="M48.4144 2.33141L48.4946 2.44274L49.2426 3.66569C49.4914 4.07294 49.4534 4.68074 49.1579 5.02334C49.0268 5.17559 48.8668 5.24999 48.7072 5.24999C48.5476 5.24999 48.3893 5.17539 48.2612 5.02967L48.1713 4.90709L47.4232 3.68414C47.1744 3.27689 47.2121 2.66954 47.5079 2.32649C47.7743 2.01788 48.1586 2.02954 48.4144 2.33141Z" fill="white"/>
</mask>
<g mask="url(#mask1)">
<path fill-rule="evenodd" clip-rule="evenodd" d="M39.627 -5.40002H57.0376V12.75H39.627V-5.40002Z" fill="black" fill-opacity="0.4917"/>
</g>
<mask id="mask2" mask-type="alpha" maskUnits="userSpaceOnUse" x="45" y="6" width="3" height="3">
<path fill-rule="evenodd" clip-rule="evenodd" d="M46.0637 6.35009L46.1787 6.41264L46.9126 6.90839C47.2487 7.13489 47.3586 7.62719 47.1591 8.00774C47.0269 8.26019 46.7919 8.39999 46.5505 8.39999C46.4686 8.39999 46.3861 8.38379 46.3065 8.35041L46.1897 8.28734L45.4559 7.79204C45.1205 7.56569 45.0105 7.07294 45.2094 6.69239C45.3868 6.35412 45.7496 6.21734 46.0637 6.35009Z" fill="white"/>
</mask>
<g mask="url(#mask2)">
<path fill-rule="evenodd" clip-rule="evenodd" d="M37.4795 -1.20001H54.8908V15.9H37.4795V-1.20001Z" fill="black" fill-opacity="0.4917"/>
</g>
<mask id="mask3" mask-type="alpha" maskUnits="userSpaceOnUse" x="50" y="6" width="3" height="3">
<path fill-rule="evenodd" clip-rule="evenodd" d="M52.5955 6.97998C52.7109 7.43439 52.5259 7.91055 52.1784 8.11157L52.0567 8.16798L51.518 8.35968C51.4416 8.38713 51.3623 8.40003 51.2875 8.40003C50.941 8.40003 50.6205 8.13318 50.5152 7.71933C50.4012 7.26546 50.5851 6.78899 50.9335 6.58823L51.0555 6.53193L51.5927 6.34068C52.0186 6.18888 52.4673 6.47568 52.5955 6.97998Z" fill="white"/>
</mask>
<g mask="url(#mask3)">
<path fill-rule="evenodd" clip-rule="evenodd" d="M42.8496 -1.20001H60.2601V15.9H42.8496V-1.20001Z" fill="black" fill-opacity="0.4917"/>
</g>
</svg>
