<svg width="38" height="72" viewBox="0 0 38 72" fill="none" xmlns="http://www.w3.org/2000/svg">
<path d="M37.1834 11.5417H0.887965C0.427086 11.5417 0.338135 11.1725 0.338135 10.7177C0.338135 10.2623 0.427086 9.89319 0.887965 9.89319H37.1834C37.6438 9.89319 37.5732 10.2321 37.5732 10.6875C37.5732 11.1429 37.6443 11.5417 37.1834 11.5417Z" fill="white"/>
<path d="M37.1833 61.0076H0.887881C0.427002 61.0076 0.427002 60.7835 0.427002 60.3281C0.427002 59.8727 0.427002 59.3586 0.887881 59.3586H37.1833C37.6437 59.3586 37.7326 59.7277 37.7326 60.1831C37.7332 60.6385 37.6442 61.0076 37.1833 61.0076Z" fill="white"/>
<path fill-rule="evenodd" clip-rule="evenodd" d="M15.0723 65.7482C15.0723 67.9076 16.8502 69.6643 19.0356 69.6643C21.221 69.6643 22.9989 67.9076 22.9989 65.7482C22.9989 63.5889 21.221 61.8322 19.0356 61.8322C16.8502 61.8322 15.0723 63.5889 15.0723 65.7482ZM16.7412 65.7482C16.7412 64.498 17.7703 63.4812 19.0356 63.4812C20.3009 63.4812 21.33 64.498 21.33 65.7482C21.33 66.9985 20.3009 68.0153 19.0356 68.0153C17.7703 68.0153 16.7412 66.9985 16.7412 65.7482Z" fill="white"/>
<path fill-rule="evenodd" clip-rule="evenodd" d="M6.06419 72H32.0068C35.283 72 37.9482 69.3666 37.9482 66.13V5.87C37.9482 2.63342 35.283 0 32.0068 0H6.06419C2.78801 0 0.122803 2.63342 0.122803 5.87V66.13C0.122803 69.3666 2.78801 72 6.06419 72ZM1.79175 5.87C1.79175 3.54254 3.7081 1.64905 6.06419 1.64905H32.0068C34.3629 1.64905 36.2793 3.54254 36.2793 5.87V66.13C36.2793 68.4575 34.3629 70.351 32.0068 70.351H6.06419C3.7081 70.351 1.79175 68.4575 1.79175 66.13V5.87Z" fill="white"/>
</svg>
