<svg width="23" height="28" viewBox="0 0 23 28" fill="none" xmlns="http://www.w3.org/2000/svg">
<path fill-rule="evenodd" clip-rule="evenodd" d="M18.633 10.1179C17.2297 10.1179 15.9785 9.39559 15.178 8.27911L8.47557 12.3234C8.63262 12.8106 8.71875 13.336 8.71875 13.8778C8.71875 14.4251 8.63262 14.9449 8.47063 15.4374L15.1679 19.4766C15.9631 18.3546 17.2198 17.6266 18.628 17.6266C21.0292 17.6266 22.9899 19.7393 22.9899 22.339C22.9899 24.9386 21.0344 27.0511 18.628 27.0511C16.2216 27.0511 14.2662 24.9386 14.2662 22.339C14.2662 21.7917 14.3523 21.2663 14.5143 20.7791L7.82205 16.7402C7.02673 17.8677 5.77034 18.59 4.36184 18.59C1.96064 18.59 0 16.4775 0 13.8778C0 11.2782 1.96064 9.16552 4.36704 9.16552C5.77528 9.16552 7.03167 9.89342 7.83218 11.0209L14.5296 6.97635C14.3674 6.48379 14.2763 5.95312 14.2763 5.40583C14.2763 2.81153 16.2318 0.693438 18.6382 0.693438C21.0446 0.693438 23 2.80619 23 5.40583C23 8.00547 21.0394 10.1179 18.633 10.1179Z" fill="#AD9558"/>
<mask id="mask0" mask-type="alpha" maskUnits="userSpaceOnUse" x="0" y="0" width="23" height="28">
<path fill-rule="evenodd" clip-rule="evenodd" d="M18.633 10.1179C17.2297 10.1179 15.9785 9.39559 15.178 8.27911L8.47557 12.3234C8.63262 12.8106 8.71875 13.336 8.71875 13.8778C8.71875 14.4251 8.63262 14.9449 8.47063 15.4374L15.1679 19.4766C15.9631 18.3546 17.2198 17.6266 18.628 17.6266C21.0292 17.6266 22.9899 19.7393 22.9899 22.339C22.9899 24.9386 21.0344 27.0511 18.628 27.0511C16.2216 27.0511 14.2662 24.9386 14.2662 22.339C14.2662 21.7917 14.3523 21.2663 14.5143 20.7791L7.82205 16.7402C7.02673 17.8677 5.77034 18.59 4.36184 18.59C1.96064 18.59 0 16.4775 0 13.8778C0 11.2782 1.96064 9.16552 4.36704 9.16552C5.77528 9.16552 7.03167 9.89342 7.83218 11.0209L14.5296 6.97635C14.3674 6.48379 14.2763 5.95312 14.2763 5.40583C14.2763 2.81153 16.2318 0.693438 18.6382 0.693438C21.0446 0.693438 23 2.80619 23 5.40583C23 8.00547 21.0394 10.1179 18.633 10.1179Z" fill="white"/>
</mask>
<g mask="url(#mask0)">
</g>
</svg>
