<svg width="18" height="20" viewBox="0 0 18 20" fill="none" xmlns="http://www.w3.org/2000/svg">
<path fill-rule="evenodd" clip-rule="evenodd" d="M17.9487 9.92122C17.9487 14.9376 14.004 19.0051 9.1379 19.0051C7.59256 19.0051 6.14071 18.5951 4.87856 17.8748L0 19.4856L1.59021 14.612C0.78775 13.2428 0.326318 11.6372 0.326318 9.92122C0.326318 4.90385 4.27105 0.836548 9.1379 0.836548C14.004 0.836548 17.9487 4.90385 17.9487 9.92122ZM9.13789 2.2834C5.05206 2.2834 1.72955 5.70913 1.72955 9.92122C1.72955 11.5916 2.25331 13.1397 3.14052 14.3993L2.21542 17.2353L5.06178 16.2956C6.23119 17.0928 7.63244 17.5583 9.13789 17.5583C13.222 17.5583 16.5455 14.1323 16.5455 9.92122C16.5455 5.70913 13.222 2.2834 9.13789 2.2834ZM13.5872 12.0135C13.5326 11.9206 13.3885 11.8649 13.1734 11.7535C12.9572 11.6424 11.8948 11.1031 11.6971 11.0293C11.4994 10.9552 11.3543 10.9179 11.2112 11.1404C11.0671 11.3632 10.6531 11.8649 10.5267 12.0135C10.401 12.1625 10.2754 12.1806 10.0593 12.0692C9.84288 11.9581 9.14662 11.7222 8.32197 10.9645C7.6803 10.3735 7.24679 9.64511 7.12015 9.42236C6.99476 9.19987 7.10769 9.07943 7.21463 8.96831C7.3121 8.86807 7.43101 8.70826 7.53896 8.57875C7.64715 8.44821 7.68305 8.35496 7.75509 8.20629C7.82713 8.05761 7.79124 7.92811 7.73664 7.81673C7.68305 7.70561 7.25078 6.60972 7.07054 6.16344C6.89155 5.71845 6.71132 5.79227 6.58468 5.79227C6.45904 5.79227 6.31495 5.77388 6.17086 5.77388C6.02677 5.77388 5.79294 5.82957 5.59525 6.05232C5.39757 6.27482 4.83966 6.81409 4.83966 7.90894C4.83966 9.00457 5.61295 10.0639 5.7209 10.2116C5.82909 10.3605 7.21463 12.6823 9.41061 13.5738C11.6066 14.4651 11.6066 14.1678 12.0027 14.1302C12.3981 14.0939 13.2803 13.592 13.4606 13.0719C13.6408 12.5518 13.6408 12.1058 13.5872 12.0135Z" fill="#EBCB80"/>
</svg>
