<svg width="23" height="23" viewBox="0 0 23 23" fill="none" xmlns="http://www.w3.org/2000/svg">
<path fill-rule="evenodd" clip-rule="evenodd" d="M23 11.2042C23 17.3909 17.9451 22.4074 11.7096 22.4074C9.72932 22.4074 7.86888 21.9017 6.25153 21.0134L0 23L2.03774 16.9893C1.00944 15.3008 0.418153 13.3205 0.418153 11.2042C0.418153 5.01624 5.47304 0 11.7096 0C17.9451 0 23 5.01624 23 11.2042ZM11.7096 1.78442C6.47386 1.78442 2.21631 6.00939 2.21631 11.2042C2.21631 13.2643 2.88746 15.1736 4.02436 16.7271L2.8389 20.2247L6.48632 19.0657C7.98483 20.049 9.78043 20.623 11.7096 20.623C16.943 20.623 21.2018 16.3977 21.2018 11.2042C21.2018 6.00939 16.943 1.78442 11.7096 1.78442ZM17.411 13.7847C17.341 13.67 17.1564 13.6013 16.8807 13.4639C16.6038 13.3269 15.2423 12.6618 14.989 12.5708C14.7357 12.4794 14.5497 12.4334 14.3664 12.7078C14.1817 12.9825 13.6511 13.6013 13.4892 13.7847C13.3282 13.9683 13.1672 13.9907 12.8902 13.8533C12.6129 13.7163 11.7207 13.4253 10.664 12.4909C9.84176 11.7619 9.28625 10.8637 9.12397 10.5889C8.96329 10.3145 9.108 10.166 9.24504 10.029C9.36994 9.90533 9.52232 9.70824 9.66064 9.54851C9.79928 9.38751 9.84528 9.27251 9.9376 9.08915C10.0299 8.90579 9.98392 8.74607 9.91396 8.60871C9.84528 8.47167 9.29136 7.1201 9.0604 6.56969C8.83104 6.02089 8.60008 6.11193 8.43781 6.11193C8.27681 6.11193 8.09217 6.08925 7.90753 6.08925C7.72289 6.08925 7.42325 6.15793 7.16993 6.43265C6.91661 6.70706 6.20169 7.37214 6.20169 8.72243C6.20169 10.0737 7.19261 11.3802 7.33093 11.5623C7.46957 11.746 9.24504 14.6095 12.059 15.709C14.873 16.8082 14.873 16.4415 15.3806 16.3952C15.8873 16.3504 17.0178 15.7314 17.2487 15.0899C17.4797 14.4485 17.4797 13.8984 17.411 13.7847Z" fill="#8D8D8D"/>
</svg>
